<mxfile host="app.diagrams.net" modified="2022-08-31T12:16:41.255Z" agent="5.0 (Windows NT 10.0; Win64; x64) AppleWebKit/537.36 (KHTML, like Gecko) Chrome/104.0.5112.102 Safari/537.36 Edg/104.0.1293.70" etag="6Tgak586pG3mepfh4dTm" version="20.2.7" type="github" pages="2">
  <diagram name="[1]" id="hCnkRjq1J5GuVEfXMKVn">
    <mxGraphModel dx="1155" dy="670" grid="0" gridSize="1" guides="1" tooltips="1" connect="1" arrows="1" fold="1" page="1" pageScale="1" pageWidth="850" pageHeight="1100" background="#495766" math="0" shadow="0">
      <root>
        <mxCell id="rrqrWPFm53r036Y-ru9I-0" />
        <mxCell id="rrqrWPFm53r036Y-ru9I-1" parent="rrqrWPFm53r036Y-ru9I-0" />
        <mxCell id="rrqrWPFm53r036Y-ru9I-4" style="rounded=0;orthogonalLoop=1;jettySize=auto;html=1;fontFamily=Manrope;fontSize=12;fontColor=#FFFFFF;endArrow=none;endFill=0;startArrow=none;startFill=0;strokeColor=#98A2AE;endSize=6;startSize=6;exitX=1;exitY=1;exitDx=0;exitDy=0;entryX=0;entryY=0;entryDx=0;entryDy=0;" edge="1" parent="rrqrWPFm53r036Y-ru9I-1" source="rrqrWPFm53r036Y-ru9I-7" target="rrqrWPFm53r036Y-ru9I-91">
          <mxGeometry relative="1" as="geometry">
            <mxPoint x="464" y="259" as="sourcePoint" />
            <mxPoint x="364" y="312" as="targetPoint" />
          </mxGeometry>
        </mxCell>
        <mxCell id="rrqrWPFm53r036Y-ru9I-5" style="rounded=0;orthogonalLoop=1;jettySize=auto;html=1;fontFamily=Manrope;fontSize=12;fontColor=#FFFFFF;endArrow=none;endFill=0;startArrow=none;startFill=0;entryX=0.5;entryY=0;entryDx=0;entryDy=0;strokeColor=#98A2AE;endSize=6;startSize=6;exitX=0.5;exitY=1;exitDx=0;exitDy=0;" edge="1" parent="rrqrWPFm53r036Y-ru9I-1" source="rrqrWPFm53r036Y-ru9I-6" target="rrqrWPFm53r036Y-ru9I-65">
          <mxGeometry relative="1" as="geometry">
            <mxPoint x="239" y="261" as="sourcePoint" />
            <mxPoint x="200" y="306" as="targetPoint" />
          </mxGeometry>
        </mxCell>
        <mxCell id="rrqrWPFm53r036Y-ru9I-8" style="rounded=0;orthogonalLoop=1;jettySize=auto;html=1;fontFamily=Manrope;fontSize=12;fontColor=#FFFFFF;endArrow=none;endFill=0;startArrow=none;startFill=0;entryX=0;entryY=0;entryDx=0;entryDy=0;strokeColor=#98A2AE;exitX=1;exitY=1;exitDx=0;exitDy=0;" edge="1" parent="rrqrWPFm53r036Y-ru9I-1" source="rrqrWPFm53r036Y-ru9I-34" target="rrqrWPFm53r036Y-ru9I-54">
          <mxGeometry relative="1" as="geometry">
            <mxPoint x="381" y="369" as="sourcePoint" />
            <mxPoint x="511.5" y="420" as="targetPoint" />
          </mxGeometry>
        </mxCell>
        <mxCell id="rrqrWPFm53r036Y-ru9I-9" style="rounded=0;orthogonalLoop=1;jettySize=auto;html=1;fontFamily=Manrope;fontSize=12;fontColor=#FFFFFF;endArrow=none;endFill=0;startArrow=none;startFill=0;entryX=0.5;entryY=0;entryDx=0;entryDy=0;strokeColor=#98A2AE;exitX=1;exitY=1;exitDx=0;exitDy=0;" edge="1" parent="rrqrWPFm53r036Y-ru9I-1" source="rrqrWPFm53r036Y-ru9I-96" target="rrqrWPFm53r036Y-ru9I-55">
          <mxGeometry relative="1" as="geometry">
            <mxPoint x="491" y="368" as="sourcePoint" />
            <mxPoint x="633.8800000000001" y="411" as="targetPoint" />
          </mxGeometry>
        </mxCell>
        <mxCell id="rrqrWPFm53r036Y-ru9I-10" style="rounded=0;orthogonalLoop=1;jettySize=auto;html=1;fontFamily=Manrope;fontSize=12;fontColor=#FFFFFF;endArrow=none;endFill=0;startArrow=none;startFill=0;entryX=1;entryY=0;entryDx=0;entryDy=0;strokeColor=#98A2AE;exitX=0.5;exitY=1;exitDx=0;exitDy=0;" edge="1" parent="rrqrWPFm53r036Y-ru9I-1" source="rrqrWPFm53r036Y-ru9I-94" target="rrqrWPFm53r036Y-ru9I-103">
          <mxGeometry relative="1" as="geometry">
            <mxPoint x="462" y="368" as="sourcePoint" />
            <mxPoint x="312.8800000000001" y="413" as="targetPoint" />
          </mxGeometry>
        </mxCell>
        <mxCell id="rrqrWPFm53r036Y-ru9I-11" style="rounded=0;orthogonalLoop=1;jettySize=auto;html=1;fontFamily=Manrope;fontSize=12;fontColor=#FFFFFF;endArrow=none;endFill=0;startArrow=none;startFill=0;entryX=0.5;entryY=0;entryDx=0;entryDy=0;exitX=0.5;exitY=1;exitDx=0;exitDy=0;strokeColor=#98A2AE;" edge="1" parent="rrqrWPFm53r036Y-ru9I-1" source="rrqrWPFm53r036Y-ru9I-32" target="rrqrWPFm53r036Y-ru9I-102">
          <mxGeometry relative="1" as="geometry">
            <mxPoint x="247.5" y="368" as="sourcePoint" />
            <mxPoint x="190.5" y="422" as="targetPoint" />
          </mxGeometry>
        </mxCell>
        <mxCell id="rrqrWPFm53r036Y-ru9I-12" value="" style="group" vertex="1" connectable="0" parent="rrqrWPFm53r036Y-ru9I-1">
          <mxGeometry x="207" y="416" width="50" height="50" as="geometry" />
        </mxCell>
        <mxCell id="rrqrWPFm53r036Y-ru9I-13" value="" style="group" vertex="1" connectable="0" parent="rrqrWPFm53r036Y-ru9I-12">
          <mxGeometry width="50" height="50" as="geometry" />
        </mxCell>
        <mxCell id="rrqrWPFm53r036Y-ru9I-16" value="" style="whiteSpace=wrap;html=1;aspect=fixed;fillColor=#001135;strokeColor=none;connectable=1;allowArrows=1;fontFamily=Manrope;fontSource=https%3A%2F%2Ffonts.googleapis.com%2Fcss%3Ffamily%3DManrope;" vertex="1" parent="rrqrWPFm53r036Y-ru9I-13">
          <mxGeometry width="50" height="50" as="geometry" />
        </mxCell>
        <mxCell id="rrqrWPFm53r036Y-ru9I-17" value="" style="endArrow=open;html=1;edgeStyle=orthogonalEdgeStyle;rounded=0;endFill=0;startSize=6;endSize=2;strokeColor=#FFFFFF;fontFamily=Manrope;fontSource=https%3A%2F%2Ffonts.googleapis.com%2Fcss%3Ffamily%3DManrope;" edge="1" parent="rrqrWPFm53r036Y-ru9I-13">
          <mxGeometry width="83.33333333333334" height="83.33333333333334" as="geometry">
            <mxPoint x="5" y="20" as="sourcePoint" />
            <mxPoint x="18.333333333333336" y="5" as="targetPoint" />
            <Array as="points">
              <mxPoint x="18.333333333333336" y="20" />
            </Array>
          </mxGeometry>
        </mxCell>
        <mxCell id="rrqrWPFm53r036Y-ru9I-18" value="" style="endArrow=open;html=1;edgeStyle=orthogonalEdgeStyle;rounded=0;endFill=0;startSize=6;endSize=2;strokeColor=#FFFFFF;fontFamily=Manrope;fontSource=https%3A%2F%2Ffonts.googleapis.com%2Fcss%3Ffamily%3DManrope;" edge="1" parent="rrqrWPFm53r036Y-ru9I-13">
          <mxGeometry width="83.33333333333334" height="83.33333333333334" as="geometry">
            <mxPoint x="18.333333333333336" y="45" as="sourcePoint" />
            <mxPoint x="5" y="31.666666666666668" as="targetPoint" />
            <Array as="points">
              <mxPoint x="18.333333333333336" y="31.666666666666668" />
            </Array>
          </mxGeometry>
        </mxCell>
        <mxCell id="rrqrWPFm53r036Y-ru9I-19" value="" style="endArrow=open;html=1;edgeStyle=orthogonalEdgeStyle;rounded=0;endFill=0;startSize=6;endSize=2;strokeColor=#FFFFFF;fontFamily=Manrope;fontSource=https%3A%2F%2Ffonts.googleapis.com%2Fcss%3Ffamily%3DManrope;" edge="1" parent="rrqrWPFm53r036Y-ru9I-13">
          <mxGeometry width="83.33333333333334" height="83.33333333333334" as="geometry">
            <mxPoint x="30" y="5" as="sourcePoint" />
            <mxPoint x="45" y="20" as="targetPoint" />
            <Array as="points">
              <mxPoint x="30" y="20" />
            </Array>
          </mxGeometry>
        </mxCell>
        <mxCell id="rrqrWPFm53r036Y-ru9I-20" value="" style="endArrow=open;html=1;edgeStyle=orthogonalEdgeStyle;rounded=0;endFill=0;startSize=6;endSize=2;strokeColor=#FFFFFF;fontFamily=Manrope;fontSource=https%3A%2F%2Ffonts.googleapis.com%2Fcss%3Ffamily%3DManrope;" edge="1" parent="rrqrWPFm53r036Y-ru9I-13">
          <mxGeometry width="83.33333333333334" height="83.33333333333334" as="geometry">
            <mxPoint x="45" y="31.666666666666668" as="sourcePoint" />
            <mxPoint x="30" y="45" as="targetPoint" />
            <Array as="points">
              <mxPoint x="30" y="31.666666666666668" />
            </Array>
          </mxGeometry>
        </mxCell>
        <mxCell id="rrqrWPFm53r036Y-ru9I-14" value="51" style="ellipse;whiteSpace=wrap;html=1;aspect=fixed;fontColor=#FFFFFF;fontSize=8;strokeColor=#98A2AE;fontFamily=Manrope;fontSource=https://fonts.googleapis.com/css?family=Manrope;fillColor=#BEC8D2;strokeWidth=1;" vertex="1" parent="rrqrWPFm53r036Y-ru9I-13">
          <mxGeometry x="15" y="-10" width="10" height="10" as="geometry" />
        </mxCell>
        <mxCell id="rrqrWPFm53r036Y-ru9I-15" value="52" style="ellipse;whiteSpace=wrap;html=1;aspect=fixed;fontColor=#FFFFFF;fontSize=8;strokeColor=#98A2AE;fontFamily=Manrope;fontSource=https://fonts.googleapis.com/css?family=Manrope;fillColor=#BEC8D2;strokeWidth=1;" vertex="1" parent="rrqrWPFm53r036Y-ru9I-13">
          <mxGeometry x="25" y="-10" width="10" height="10" as="geometry" />
        </mxCell>
        <mxCell id="rrqrWPFm53r036Y-ru9I-23" value="&lt;font&gt;spine1&lt;/font&gt;" style="text;html=1;align=center;verticalAlign=middle;resizable=0;points=[];autosize=1;fontSize=14;fontFamily=Manrope;fontStyle=0;fontColor=#FFFFFF;" vertex="1" parent="rrqrWPFm53r036Y-ru9I-1">
          <mxGeometry x="277" y="326" width="60" height="20" as="geometry" />
        </mxCell>
        <mxCell id="rrqrWPFm53r036Y-ru9I-24" value="" style="group" vertex="1" connectable="0" parent="rrqrWPFm53r036Y-ru9I-1">
          <mxGeometry x="338" y="311" width="50" height="60" as="geometry" />
        </mxCell>
        <mxCell id="rrqrWPFm53r036Y-ru9I-25" value="" style="group" vertex="1" connectable="0" parent="rrqrWPFm53r036Y-ru9I-24">
          <mxGeometry width="50" height="60" as="geometry" />
        </mxCell>
        <mxCell id="rrqrWPFm53r036Y-ru9I-26" value="" style="whiteSpace=wrap;html=1;aspect=fixed;fillColor=#001135;strokeColor=none;connectable=1;allowArrows=1;fontFamily=Manrope;fontSource=https%3A%2F%2Ffonts.googleapis.com%2Fcss%3Ffamily%3DManrope;" vertex="1" parent="rrqrWPFm53r036Y-ru9I-25">
          <mxGeometry width="50" height="50" as="geometry" />
        </mxCell>
        <mxCell id="rrqrWPFm53r036Y-ru9I-27" value="" style="endArrow=open;html=1;edgeStyle=orthogonalEdgeStyle;rounded=0;endFill=0;startSize=6;endSize=2;strokeColor=#FFFFFF;fontFamily=Manrope;fontSource=https%3A%2F%2Ffonts.googleapis.com%2Fcss%3Ffamily%3DManrope;" edge="1" parent="rrqrWPFm53r036Y-ru9I-25">
          <mxGeometry width="83.33333333333334" height="83.33333333333334" as="geometry">
            <mxPoint x="5" y="20" as="sourcePoint" />
            <mxPoint x="18.333333333333336" y="5" as="targetPoint" />
            <Array as="points">
              <mxPoint x="18.333333333333336" y="20" />
            </Array>
          </mxGeometry>
        </mxCell>
        <mxCell id="rrqrWPFm53r036Y-ru9I-28" value="" style="endArrow=open;html=1;edgeStyle=orthogonalEdgeStyle;rounded=0;endFill=0;startSize=6;endSize=2;strokeColor=#FFFFFF;fontFamily=Manrope;fontSource=https%3A%2F%2Ffonts.googleapis.com%2Fcss%3Ffamily%3DManrope;" edge="1" parent="rrqrWPFm53r036Y-ru9I-25">
          <mxGeometry width="83.33333333333334" height="83.33333333333334" as="geometry">
            <mxPoint x="18.333333333333336" y="45" as="sourcePoint" />
            <mxPoint x="5" y="31.666666666666668" as="targetPoint" />
            <Array as="points">
              <mxPoint x="18.333333333333336" y="31.666666666666668" />
            </Array>
          </mxGeometry>
        </mxCell>
        <mxCell id="rrqrWPFm53r036Y-ru9I-29" value="" style="endArrow=open;html=1;edgeStyle=orthogonalEdgeStyle;rounded=0;endFill=0;startSize=6;endSize=2;strokeColor=#FFFFFF;fontFamily=Manrope;fontSource=https%3A%2F%2Ffonts.googleapis.com%2Fcss%3Ffamily%3DManrope;" edge="1" parent="rrqrWPFm53r036Y-ru9I-25">
          <mxGeometry width="83.33333333333334" height="83.33333333333334" as="geometry">
            <mxPoint x="30" y="5" as="sourcePoint" />
            <mxPoint x="45" y="20" as="targetPoint" />
            <Array as="points">
              <mxPoint x="30" y="20" />
            </Array>
          </mxGeometry>
        </mxCell>
        <mxCell id="rrqrWPFm53r036Y-ru9I-30" value="" style="endArrow=open;html=1;edgeStyle=orthogonalEdgeStyle;rounded=0;endFill=0;startSize=6;endSize=2;strokeColor=#FFFFFF;fontFamily=Manrope;fontSource=https%3A%2F%2Ffonts.googleapis.com%2Fcss%3Ffamily%3DManrope;" edge="1" parent="rrqrWPFm53r036Y-ru9I-25">
          <mxGeometry width="83.33333333333334" height="83.33333333333334" as="geometry">
            <mxPoint x="45" y="31.666666666666668" as="sourcePoint" />
            <mxPoint x="30" y="45" as="targetPoint" />
            <Array as="points">
              <mxPoint x="30" y="31.666666666666668" />
            </Array>
          </mxGeometry>
        </mxCell>
        <mxCell id="rrqrWPFm53r036Y-ru9I-31" value="11" style="ellipse;whiteSpace=wrap;html=1;aspect=fixed;fontColor=#FFFFFF;fontSize=8;strokeColor=#98A2AE;fontFamily=Manrope;fontSource=https://fonts.googleapis.com/css?family=Manrope;fillColor=#BEC8D2;strokeWidth=1;" vertex="1" parent="rrqrWPFm53r036Y-ru9I-25">
          <mxGeometry x="5" y="50" width="10" height="10" as="geometry" />
        </mxCell>
        <mxCell id="rrqrWPFm53r036Y-ru9I-32" value="12" style="ellipse;whiteSpace=wrap;html=1;aspect=fixed;fontColor=#FFFFFF;fontSize=8;strokeColor=#98A2AE;fontFamily=Manrope;fontSource=https://fonts.googleapis.com/css?family=Manrope;fillColor=#BEC8D2;strokeWidth=1;" vertex="1" parent="rrqrWPFm53r036Y-ru9I-25">
          <mxGeometry x="15" y="50" width="10" height="10" as="geometry" />
        </mxCell>
        <mxCell id="rrqrWPFm53r036Y-ru9I-33" value="13" style="ellipse;whiteSpace=wrap;html=1;aspect=fixed;fontColor=#FFFFFF;fontSize=8;strokeColor=#98A2AE;fontFamily=Manrope;fontSource=https://fonts.googleapis.com/css?family=Manrope;fillColor=#BEC8D2;strokeWidth=1;" vertex="1" parent="rrqrWPFm53r036Y-ru9I-25">
          <mxGeometry x="25" y="50" width="10" height="10" as="geometry" />
        </mxCell>
        <mxCell id="rrqrWPFm53r036Y-ru9I-34" value="14" style="ellipse;whiteSpace=wrap;html=1;aspect=fixed;fontColor=#FFFFFF;fontSize=8;strokeColor=#98A2AE;fontFamily=Manrope;fontSource=https://fonts.googleapis.com/css?family=Manrope;fillColor=#BEC8D2;strokeWidth=1;" vertex="1" parent="rrqrWPFm53r036Y-ru9I-25">
          <mxGeometry x="35" y="50" width="10" height="10" as="geometry" />
        </mxCell>
        <mxCell id="rrqrWPFm53r036Y-ru9I-35" style="rounded=0;orthogonalLoop=1;jettySize=auto;html=1;fontFamily=Manrope;fontSize=12;fontColor=#FFFFFF;endArrow=none;endFill=0;startArrow=none;startFill=0;entryX=0.5;entryY=0;entryDx=0;entryDy=0;strokeColor=#98A2AE;endSize=6;startSize=6;exitX=0;exitY=1;exitDx=0;exitDy=0;" edge="1" parent="rrqrWPFm53r036Y-ru9I-1" source="rrqrWPFm53r036Y-ru9I-31" target="rrqrWPFm53r036Y-ru9I-14">
          <mxGeometry relative="1" as="geometry">
            <mxPoint x="222.5" y="368" as="sourcePoint" />
            <mxPoint x="167.885" y="400" as="targetPoint" />
          </mxGeometry>
        </mxCell>
        <mxCell id="rrqrWPFm53r036Y-ru9I-36" value="" style="group" vertex="1" connectable="0" parent="rrqrWPFm53r036Y-ru9I-1">
          <mxGeometry x="438" y="311" width="50" height="50" as="geometry" />
        </mxCell>
        <mxCell id="rrqrWPFm53r036Y-ru9I-37" value="" style="whiteSpace=wrap;html=1;aspect=fixed;fillColor=#001135;strokeColor=none;connectable=1;allowArrows=1;fontFamily=Manrope;fontSource=https%3A%2F%2Ffonts.googleapis.com%2Fcss%3Ffamily%3DManrope;" vertex="1" parent="rrqrWPFm53r036Y-ru9I-36">
          <mxGeometry width="50" height="50" as="geometry" />
        </mxCell>
        <mxCell id="rrqrWPFm53r036Y-ru9I-38" value="" style="endArrow=open;html=1;edgeStyle=orthogonalEdgeStyle;rounded=0;endFill=0;startSize=6;endSize=2;strokeColor=#FFFFFF;fontFamily=Manrope;fontSource=https%3A%2F%2Ffonts.googleapis.com%2Fcss%3Ffamily%3DManrope;" edge="1" parent="rrqrWPFm53r036Y-ru9I-36">
          <mxGeometry width="83.33333333333334" height="83.33333333333334" as="geometry">
            <mxPoint x="5" y="20" as="sourcePoint" />
            <mxPoint x="18.333333333333336" y="5" as="targetPoint" />
            <Array as="points">
              <mxPoint x="18.333333333333336" y="20" />
            </Array>
          </mxGeometry>
        </mxCell>
        <mxCell id="rrqrWPFm53r036Y-ru9I-39" value="" style="endArrow=open;html=1;edgeStyle=orthogonalEdgeStyle;rounded=0;endFill=0;startSize=6;endSize=2;strokeColor=#FFFFFF;fontFamily=Manrope;fontSource=https%3A%2F%2Ffonts.googleapis.com%2Fcss%3Ffamily%3DManrope;" edge="1" parent="rrqrWPFm53r036Y-ru9I-36">
          <mxGeometry width="83.33333333333334" height="83.33333333333334" as="geometry">
            <mxPoint x="18.333333333333336" y="45" as="sourcePoint" />
            <mxPoint x="5" y="31.666666666666668" as="targetPoint" />
            <Array as="points">
              <mxPoint x="18.333333333333336" y="31.666666666666668" />
            </Array>
          </mxGeometry>
        </mxCell>
        <mxCell id="rrqrWPFm53r036Y-ru9I-40" value="" style="endArrow=open;html=1;edgeStyle=orthogonalEdgeStyle;rounded=0;endFill=0;startSize=6;endSize=2;strokeColor=#FFFFFF;fontFamily=Manrope;fontSource=https%3A%2F%2Ffonts.googleapis.com%2Fcss%3Ffamily%3DManrope;" edge="1" parent="rrqrWPFm53r036Y-ru9I-36">
          <mxGeometry width="83.33333333333334" height="83.33333333333334" as="geometry">
            <mxPoint x="30" y="5" as="sourcePoint" />
            <mxPoint x="45" y="20" as="targetPoint" />
            <Array as="points">
              <mxPoint x="30" y="20" />
            </Array>
          </mxGeometry>
        </mxCell>
        <mxCell id="rrqrWPFm53r036Y-ru9I-41" value="" style="endArrow=open;html=1;edgeStyle=orthogonalEdgeStyle;rounded=0;endFill=0;startSize=6;endSize=2;strokeColor=#FFFFFF;fontFamily=Manrope;fontSource=https%3A%2F%2Ffonts.googleapis.com%2Fcss%3Ffamily%3DManrope;" edge="1" parent="rrqrWPFm53r036Y-ru9I-36">
          <mxGeometry width="83.33333333333334" height="83.33333333333334" as="geometry">
            <mxPoint x="45" y="31.666666666666668" as="sourcePoint" />
            <mxPoint x="30" y="45" as="targetPoint" />
            <Array as="points">
              <mxPoint x="30" y="31.666666666666668" />
            </Array>
          </mxGeometry>
        </mxCell>
        <mxCell id="rrqrWPFm53r036Y-ru9I-42" value="&lt;font&gt;spine2&lt;/font&gt;" style="text;html=1;align=center;verticalAlign=middle;resizable=0;points=[];autosize=1;fontSize=14;fontFamily=Manrope;fontStyle=0;fontColor=#FFFFFF;" vertex="1" parent="rrqrWPFm53r036Y-ru9I-1">
          <mxGeometry x="488" y="326" width="60" height="20" as="geometry" />
        </mxCell>
        <mxCell id="rrqrWPFm53r036Y-ru9I-43" style="rounded=0;orthogonalLoop=1;jettySize=auto;html=1;fontFamily=Manrope;fontSize=12;fontColor=#FFFFFF;endArrow=none;endFill=0;startArrow=none;startFill=0;entryX=1;entryY=0;entryDx=0;entryDy=0;strokeColor=#98A2AE;endSize=6;startSize=6;exitX=0;exitY=1;exitDx=0;exitDy=0;" edge="1" parent="rrqrWPFm53r036Y-ru9I-1" source="rrqrWPFm53r036Y-ru9I-93" target="rrqrWPFm53r036Y-ru9I-15">
          <mxGeometry relative="1" as="geometry">
            <mxPoint x="463" y="361" as="sourcePoint" />
            <mxPoint x="169" y="413" as="targetPoint" />
          </mxGeometry>
        </mxCell>
        <mxCell id="rrqrWPFm53r036Y-ru9I-44" value="" style="group" vertex="1" connectable="0" parent="rrqrWPFm53r036Y-ru9I-1">
          <mxGeometry x="461" y="416" width="50" height="50" as="geometry" />
        </mxCell>
        <mxCell id="rrqrWPFm53r036Y-ru9I-45" value="" style="group" vertex="1" connectable="0" parent="rrqrWPFm53r036Y-ru9I-44">
          <mxGeometry width="50" height="50" as="geometry" />
        </mxCell>
        <mxCell id="rrqrWPFm53r036Y-ru9I-46" value="" style="whiteSpace=wrap;html=1;aspect=fixed;fillColor=#001135;strokeColor=none;connectable=1;allowArrows=1;fontFamily=Manrope;fontSource=https%3A%2F%2Ffonts.googleapis.com%2Fcss%3Ffamily%3DManrope;" vertex="1" parent="rrqrWPFm53r036Y-ru9I-45">
          <mxGeometry width="50" height="50" as="geometry" />
        </mxCell>
        <mxCell id="rrqrWPFm53r036Y-ru9I-47" value="" style="endArrow=open;html=1;edgeStyle=orthogonalEdgeStyle;rounded=0;endFill=0;startSize=6;endSize=2;strokeColor=#FFFFFF;fontFamily=Manrope;fontSource=https%3A%2F%2Ffonts.googleapis.com%2Fcss%3Ffamily%3DManrope;" edge="1" parent="rrqrWPFm53r036Y-ru9I-45">
          <mxGeometry width="83.33333333333334" height="83.33333333333334" as="geometry">
            <mxPoint x="5" y="20" as="sourcePoint" />
            <mxPoint x="18.333333333333336" y="5" as="targetPoint" />
            <Array as="points">
              <mxPoint x="18.333333333333336" y="20" />
            </Array>
          </mxGeometry>
        </mxCell>
        <mxCell id="rrqrWPFm53r036Y-ru9I-48" value="" style="endArrow=open;html=1;edgeStyle=orthogonalEdgeStyle;rounded=0;endFill=0;startSize=6;endSize=2;strokeColor=#FFFFFF;fontFamily=Manrope;fontSource=https%3A%2F%2Ffonts.googleapis.com%2Fcss%3Ffamily%3DManrope;" edge="1" parent="rrqrWPFm53r036Y-ru9I-45">
          <mxGeometry width="83.33333333333334" height="83.33333333333334" as="geometry">
            <mxPoint x="18.333333333333336" y="45" as="sourcePoint" />
            <mxPoint x="5" y="31.666666666666668" as="targetPoint" />
            <Array as="points">
              <mxPoint x="18.333333333333336" y="31.666666666666668" />
            </Array>
          </mxGeometry>
        </mxCell>
        <mxCell id="rrqrWPFm53r036Y-ru9I-49" value="" style="endArrow=open;html=1;edgeStyle=orthogonalEdgeStyle;rounded=0;endFill=0;startSize=6;endSize=2;strokeColor=#FFFFFF;fontFamily=Manrope;fontSource=https%3A%2F%2Ffonts.googleapis.com%2Fcss%3Ffamily%3DManrope;" edge="1" parent="rrqrWPFm53r036Y-ru9I-45">
          <mxGeometry width="83.33333333333334" height="83.33333333333334" as="geometry">
            <mxPoint x="30" y="5" as="sourcePoint" />
            <mxPoint x="45" y="20" as="targetPoint" />
            <Array as="points">
              <mxPoint x="30" y="20" />
            </Array>
          </mxGeometry>
        </mxCell>
        <mxCell id="rrqrWPFm53r036Y-ru9I-50" value="" style="endArrow=open;html=1;edgeStyle=orthogonalEdgeStyle;rounded=0;endFill=0;startSize=6;endSize=2;strokeColor=#FFFFFF;fontFamily=Manrope;fontSource=https%3A%2F%2Ffonts.googleapis.com%2Fcss%3Ffamily%3DManrope;" edge="1" parent="rrqrWPFm53r036Y-ru9I-45">
          <mxGeometry width="83.33333333333334" height="83.33333333333334" as="geometry">
            <mxPoint x="45" y="31.666666666666668" as="sourcePoint" />
            <mxPoint x="30" y="45" as="targetPoint" />
            <Array as="points">
              <mxPoint x="30" y="31.666666666666668" />
            </Array>
          </mxGeometry>
        </mxCell>
        <mxCell id="rrqrWPFm53r036Y-ru9I-51" value="&lt;font&gt;leaf3&lt;/font&gt;" style="text;html=1;align=center;verticalAlign=middle;resizable=0;points=[];autosize=1;fontSize=14;fontFamily=Manrope;fontStyle=0;fontColor=#FFFFFF;" vertex="1" parent="rrqrWPFm53r036Y-ru9I-1">
          <mxGeometry x="417" y="426.87" width="43" height="22" as="geometry" />
        </mxCell>
        <mxCell id="rrqrWPFm53r036Y-ru9I-52" value="" style="group" vertex="1" connectable="0" parent="rrqrWPFm53r036Y-ru9I-1">
          <mxGeometry x="559" y="416" width="50" height="50" as="geometry" />
        </mxCell>
        <mxCell id="rrqrWPFm53r036Y-ru9I-53" value="" style="group" vertex="1" connectable="0" parent="rrqrWPFm53r036Y-ru9I-52">
          <mxGeometry width="50" height="50" as="geometry" />
        </mxCell>
        <mxCell id="rrqrWPFm53r036Y-ru9I-56" value="" style="whiteSpace=wrap;html=1;aspect=fixed;fillColor=#001135;strokeColor=none;connectable=1;allowArrows=1;fontFamily=Manrope;fontSource=https%3A%2F%2Ffonts.googleapis.com%2Fcss%3Ffamily%3DManrope;" vertex="1" parent="rrqrWPFm53r036Y-ru9I-53">
          <mxGeometry width="50" height="50" as="geometry" />
        </mxCell>
        <mxCell id="rrqrWPFm53r036Y-ru9I-57" value="" style="endArrow=open;html=1;edgeStyle=orthogonalEdgeStyle;rounded=0;endFill=0;startSize=6;endSize=2;strokeColor=#FFFFFF;fontFamily=Manrope;fontSource=https%3A%2F%2Ffonts.googleapis.com%2Fcss%3Ffamily%3DManrope;" edge="1" parent="rrqrWPFm53r036Y-ru9I-53">
          <mxGeometry width="83.33333333333334" height="83.33333333333334" as="geometry">
            <mxPoint x="5" y="20" as="sourcePoint" />
            <mxPoint x="18.333333333333336" y="5" as="targetPoint" />
            <Array as="points">
              <mxPoint x="18.333333333333336" y="20" />
            </Array>
          </mxGeometry>
        </mxCell>
        <mxCell id="rrqrWPFm53r036Y-ru9I-58" value="" style="endArrow=open;html=1;edgeStyle=orthogonalEdgeStyle;rounded=0;endFill=0;startSize=6;endSize=2;strokeColor=#FFFFFF;fontFamily=Manrope;fontSource=https%3A%2F%2Ffonts.googleapis.com%2Fcss%3Ffamily%3DManrope;" edge="1" parent="rrqrWPFm53r036Y-ru9I-53">
          <mxGeometry width="83.33333333333334" height="83.33333333333334" as="geometry">
            <mxPoint x="18.333333333333336" y="45" as="sourcePoint" />
            <mxPoint x="5" y="31.666666666666668" as="targetPoint" />
            <Array as="points">
              <mxPoint x="18.333333333333336" y="31.666666666666668" />
            </Array>
          </mxGeometry>
        </mxCell>
        <mxCell id="rrqrWPFm53r036Y-ru9I-59" value="" style="endArrow=open;html=1;edgeStyle=orthogonalEdgeStyle;rounded=0;endFill=0;startSize=6;endSize=2;strokeColor=#FFFFFF;fontFamily=Manrope;fontSource=https%3A%2F%2Ffonts.googleapis.com%2Fcss%3Ffamily%3DManrope;" edge="1" parent="rrqrWPFm53r036Y-ru9I-53">
          <mxGeometry width="83.33333333333334" height="83.33333333333334" as="geometry">
            <mxPoint x="30" y="5" as="sourcePoint" />
            <mxPoint x="45" y="20" as="targetPoint" />
            <Array as="points">
              <mxPoint x="30" y="20" />
            </Array>
          </mxGeometry>
        </mxCell>
        <mxCell id="rrqrWPFm53r036Y-ru9I-60" value="" style="endArrow=open;html=1;edgeStyle=orthogonalEdgeStyle;rounded=0;endFill=0;startSize=6;endSize=2;strokeColor=#FFFFFF;fontFamily=Manrope;fontSource=https%3A%2F%2Ffonts.googleapis.com%2Fcss%3Ffamily%3DManrope;" edge="1" parent="rrqrWPFm53r036Y-ru9I-53">
          <mxGeometry width="83.33333333333334" height="83.33333333333334" as="geometry">
            <mxPoint x="45" y="31.666666666666668" as="sourcePoint" />
            <mxPoint x="30" y="45" as="targetPoint" />
            <Array as="points">
              <mxPoint x="30" y="31.666666666666668" />
            </Array>
          </mxGeometry>
        </mxCell>
        <mxCell id="rrqrWPFm53r036Y-ru9I-54" value="51" style="ellipse;whiteSpace=wrap;html=1;aspect=fixed;fontColor=#FFFFFF;fontSize=8;strokeColor=#98A2AE;fontFamily=Manrope;fontSource=https://fonts.googleapis.com/css?family=Manrope;fillColor=#BEC8D2;strokeWidth=1;" vertex="1" parent="rrqrWPFm53r036Y-ru9I-53">
          <mxGeometry x="15" y="-10" width="10" height="10" as="geometry" />
        </mxCell>
        <mxCell id="rrqrWPFm53r036Y-ru9I-55" value="52" style="ellipse;whiteSpace=wrap;html=1;aspect=fixed;fontColor=#FFFFFF;fontSize=8;strokeColor=#98A2AE;fontFamily=Manrope;fontSource=https://fonts.googleapis.com/css?family=Manrope;fillColor=#BEC8D2;strokeWidth=1;" vertex="1" parent="rrqrWPFm53r036Y-ru9I-53">
          <mxGeometry x="25" y="-10" width="10" height="10" as="geometry" />
        </mxCell>
        <mxCell id="rrqrWPFm53r036Y-ru9I-62" style="rounded=0;orthogonalLoop=1;jettySize=auto;html=1;fontFamily=Manrope;fontSize=12;fontColor=#FFFFFF;endArrow=none;endFill=0;startArrow=none;startFill=0;entryX=0;entryY=0;entryDx=0;entryDy=0;strokeColor=#98A2AE;endSize=6;startSize=6;exitX=0.5;exitY=1;exitDx=0;exitDy=0;" edge="1" parent="rrqrWPFm53r036Y-ru9I-1" source="rrqrWPFm53r036Y-ru9I-33" target="rrqrWPFm53r036Y-ru9I-21">
          <mxGeometry relative="1" as="geometry">
            <mxPoint x="515.5" y="367" as="sourcePoint" />
            <mxPoint x="488.885" y="398" as="targetPoint" />
          </mxGeometry>
        </mxCell>
        <mxCell id="rrqrWPFm53r036Y-ru9I-63" style="rounded=0;orthogonalLoop=1;jettySize=auto;html=1;fontFamily=Manrope;fontSize=12;fontColor=#FFFFFF;endArrow=none;endFill=0;startArrow=none;startFill=0;entryX=0.5;entryY=0;entryDx=0;entryDy=0;strokeColor=#98A2AE;endSize=6;startSize=6;exitX=0.5;exitY=1;exitDx=0;exitDy=0;" edge="1" parent="rrqrWPFm53r036Y-ru9I-1" source="rrqrWPFm53r036Y-ru9I-95" target="rrqrWPFm53r036Y-ru9I-22">
          <mxGeometry relative="1" as="geometry">
            <mxPoint x="615.5" y="367" as="sourcePoint" />
            <mxPoint x="490" y="411" as="targetPoint" />
          </mxGeometry>
        </mxCell>
        <mxCell id="rrqrWPFm53r036Y-ru9I-64" value="" style="group" vertex="1" connectable="0" parent="rrqrWPFm53r036Y-ru9I-1">
          <mxGeometry x="338" y="208" width="50" height="105" as="geometry" />
        </mxCell>
        <mxCell id="rrqrWPFm53r036Y-ru9I-65" value="31" style="ellipse;whiteSpace=wrap;html=1;aspect=fixed;fontColor=#FFFFFF;fontSize=8;strokeColor=#98A2AE;fontFamily=Manrope;fontSource=https://fonts.googleapis.com/css?family=Manrope;fillColor=#BEC8D2;strokeWidth=1;" vertex="1" parent="rrqrWPFm53r036Y-ru9I-64">
          <mxGeometry x="15" y="93" width="10" height="10" as="geometry" />
        </mxCell>
        <mxCell id="rrqrWPFm53r036Y-ru9I-66" value="32" style="ellipse;whiteSpace=wrap;html=1;aspect=fixed;fontColor=#FFFFFF;fontSize=8;strokeColor=#98A2AE;fontFamily=Manrope;fontSource=https://fonts.googleapis.com/css?family=Manrope;fillColor=#BEC8D2;strokeWidth=1;" vertex="1" parent="rrqrWPFm53r036Y-ru9I-64">
          <mxGeometry x="25" y="93" width="10" height="10" as="geometry" />
        </mxCell>
        <mxCell id="rrqrWPFm53r036Y-ru9I-68" style="rounded=0;orthogonalLoop=1;jettySize=auto;html=1;fontFamily=Manrope;fontSize=12;fontColor=#FFFFFF;endArrow=none;endFill=0;startArrow=none;startFill=0;entryX=0.5;entryY=0;entryDx=0;entryDy=0;strokeColor=#98A2AE;endSize=6;startSize=6;exitX=0.5;exitY=1;exitDx=0;exitDy=0;" edge="1" parent="rrqrWPFm53r036Y-ru9I-1" source="rrqrWPFm53r036Y-ru9I-3" target="rrqrWPFm53r036Y-ru9I-92">
          <mxGeometry relative="1" as="geometry">
            <mxPoint x="348.5" y="260" as="sourcePoint" />
            <mxPoint x="212" y="318" as="targetPoint" />
          </mxGeometry>
        </mxCell>
        <mxCell id="rrqrWPFm53r036Y-ru9I-69" style="rounded=0;orthogonalLoop=1;jettySize=auto;html=1;fontFamily=Manrope;fontSize=12;fontColor=#FFFFFF;endArrow=none;endFill=0;startArrow=none;startFill=0;strokeColor=#98A2AE;endSize=2;startSize=6;exitX=0;exitY=1;exitDx=0;exitDy=0;entryX=1;entryY=0;entryDx=0;entryDy=0;" edge="1" parent="rrqrWPFm53r036Y-ru9I-1" source="rrqrWPFm53r036Y-ru9I-2" target="rrqrWPFm53r036Y-ru9I-66">
          <mxGeometry relative="1" as="geometry">
            <mxPoint x="415" y="268" as="sourcePoint" />
            <mxPoint x="363" y="311" as="targetPoint" />
          </mxGeometry>
        </mxCell>
        <mxCell id="rrqrWPFm53r036Y-ru9I-70" value="&lt;font&gt;leaf2&lt;/font&gt;" style="text;html=1;align=center;verticalAlign=middle;resizable=0;points=[];autosize=1;fontSize=14;fontFamily=Manrope;fontStyle=0;fontColor=#FFFFFF;" vertex="1" parent="rrqrWPFm53r036Y-ru9I-1">
          <mxGeometry x="358" y="426.87" width="43" height="22" as="geometry" />
        </mxCell>
        <mxCell id="rrqrWPFm53r036Y-ru9I-71" value="&lt;font&gt;leaf4&lt;/font&gt;" style="text;html=1;align=center;verticalAlign=middle;resizable=0;points=[];autosize=1;fontSize=14;fontFamily=Manrope;fontStyle=0;fontColor=#FFFFFF;" vertex="1" parent="rrqrWPFm53r036Y-ru9I-1">
          <mxGeometry x="608" y="426.87" width="43" height="22" as="geometry" />
        </mxCell>
        <mxCell id="rrqrWPFm53r036Y-ru9I-72" value="&lt;font&gt;leaf1&lt;br&gt;&lt;/font&gt;" style="text;html=1;align=center;verticalAlign=middle;resizable=0;points=[];autosize=1;fontSize=14;fontFamily=Manrope;fontStyle=0;fontColor=#FFFFFF;" vertex="1" parent="rrqrWPFm53r036Y-ru9I-1">
          <mxGeometry x="164" y="431" width="40" height="22" as="geometry" />
        </mxCell>
        <mxCell id="rrqrWPFm53r036Y-ru9I-73" value="" style="group" vertex="1" connectable="0" parent="rrqrWPFm53r036Y-ru9I-1">
          <mxGeometry x="508" y="509.99999999999994" width="56" height="54.99999999999994" as="geometry" />
        </mxCell>
        <mxCell id="rrqrWPFm53r036Y-ru9I-74" value="client2" style="text;html=1;align=center;verticalAlign=middle;resizable=0;points=[];autosize=1;fontSize=12;fontFamily=Manrope;rotation=0;fontSource=https%3A%2F%2Ffonts.googleapis.com%2Fcss%3Ffamily%3DManrope;fontColor=#FFFFFF;fontStyle=0" vertex="1" parent="rrqrWPFm53r036Y-ru9I-73">
          <mxGeometry x="-1" y="27.999999999999943" width="57" height="27" as="geometry" />
        </mxCell>
        <mxCell id="rrqrWPFm53r036Y-ru9I-75" value="" style="group" vertex="1" connectable="0" parent="rrqrWPFm53r036Y-ru9I-73">
          <mxGeometry width="53.83333333333334" height="36.64000000000006" as="geometry" />
        </mxCell>
        <mxCell id="rrqrWPFm53r036Y-ru9I-76" value="" style="rounded=1;whiteSpace=wrap;html=1;strokeColor=none;arcSize=4;" vertex="1" parent="rrqrWPFm53r036Y-ru9I-75">
          <mxGeometry x="6" y="2" width="41" height="24" as="geometry" />
        </mxCell>
        <mxCell id="rrqrWPFm53r036Y-ru9I-77" value="" style="shape=image;editableCssRules=\.color;verticalLabelPosition=bottom;labelBackgroundColor=#ffffff;verticalAlign=top;aspect=fixed;imageAspect=0;image=data:image/svg+xml,PHN2ZyB4bWxucz0iaHR0cDovL3d3dy53My5vcmcvMjAwMC9zdmciIHhtbG5zOnhsaW5rPSJodHRwOi8vd3d3LnczLm9yZy8xOTk5L3hsaW5rIiB2aWV3Qm94PSIwIDAgMTMxIDgxIiBmaWxsPSIjZmZmIiBmaWxsLXJ1bGU9ImV2ZW5vZGQiIHN0cm9rZT0iIzAwMCIgc3Ryb2tlLWxpbmVjYXA9InJvdW5kIiBzdHJva2UtbGluZWpvaW49InJvdW5kIj48dXNlIHhsaW5rOmhyZWY9IiNBIiB4PSIuNSIgeT0iLjUiLz48c3ltYm9sIGlkPSJBIiBvdmVyZmxvdz0idmlzaWJsZSI+PHBhdGggY2xhc3M9ImNvbG9yIiBkPSJNMTE5LjA3OCA2Mi43MDNWNy4yNzVjMC0yLjc0Ni0yLjU0LTcuMjc1LTUuNTgtNy4yNzVIMTYuNDc1Yy0zLjA0IDAtNi4wOCA0LjUzLTYuMDggNy4yNzV2NTUuNDI3Qy0uNDk4IDc0LjI0NC4wMDQgNzQuMjQ0LjAwNCA3NC4yNDQuMDA0IDc3LjUxNiAzLjA0NCA4MCA2Ljg1MiA4MGgxMTYuM2MzLjgwOCAwIDYuODQ4LTIuNzQ3IDYuODQ4LTUuNzU2bC0xMC45MjItMTEuNTR6TTczLjk3NSA3NS4yMzdoLTIwLjI4Yy0xLjAwNCAwLTIuMDM3LS40OTctMi4wMzctLjk5M2wyLjI3My0zLjc3YzAtLjQ5Ny43NjctLjc2IDEuNzctLjc2SDcxLjkxYy43NjcgMCAxLjUzNS4yNjMgMS41MzUuNzZsMi41NCAzLjc3Yy4wMy43My0xLjAwNC45OTMtMi4wMDcuOTkzaDB6bTQwLjI5Mi0xMi43OThIMTUuMjA1VjcuNzcyYzAtMS4yNTYgMS4yNy0zLjAxIDIuNzc1LTMuMDFoOTMuNzVjMS41MzUgMCAyLjU0IDEuNzUzIDIuNTQgM1Y2Mi40NHoiIGZpbGw9IiMyYTMyODIiIHN0cm9rZT0ibm9uZSIvPjwvc3ltYm9sPjxzdHlsZSB0eXBlPSJ0ZXh0L2NzcyI+LmNvbG9yIHsgZmlsbDogcmdiKDAsIDE3LCA1Myk7IH0gPC9zdHlsZT48L3N2Zz4=;" vertex="1" parent="rrqrWPFm53r036Y-ru9I-75">
          <mxGeometry width="53.833333333333336" height="33.28625954198473" as="geometry" />
        </mxCell>
        <mxCell id="rrqrWPFm53r036Y-ru9I-78" value="" style="shape=image;verticalLabelPosition=bottom;labelBackgroundColor=#ffffff;verticalAlign=top;aspect=fixed;imageAspect=0;image=data:image/svg+xml,PHN2ZyB4bWxucz0iaHR0cDovL3d3dy53My5vcmcvMjAwMC9zdmciIHhtbG5zOnhsaW5rPSJodHRwOi8vd3d3LnczLm9yZy8xOTk5L3hsaW5rIiB2aWV3Qm94PSIwIDAgNjUgNTciIGZpbGw9IiNmZmYiIGZpbGwtcnVsZT0iZXZlbm9kZCIgc3Ryb2tlPSIjMDAwIiBzdHJva2UtbGluZWNhcD0icm91bmQiIHN0cm9rZS1saW5lam9pbj0icm91bmQiPjx1c2UgeGxpbms6aHJlZj0iI0EiIHg9Ii41IiB5PSIuNSIvPjxzeW1ib2wgaWQ9IkEiIG92ZXJmbG93PSJ2aXNpYmxlIj48ZyBzdHJva2U9Im5vbmUiIGZpbGw9IiMwZDU5N2YiIGZpbGwtcnVsZT0ibm9uemVybyI+PHBhdGggZD0iTTIzLjI1MiAzNC41Mjd2LTYuNzQ1bC00Ljg1NSA0Ljg2NGMuNDc0LjMzMy45NjguNjM1IDEuNDguOTA2LjQ2My4yNDMuODcuNDM0IDEuMzAzLjU4YTcuOTcgNy45NyAwIDAgMCAxLjEzLjMwNGMuMzQ4LjA2NC42Ni4wOTMuOTUuMDk2bTI0LjgyMi0uNTYyYTEuMTcgMS4xNyAwIDAgMCAuMTQyLjFjLjEyMy4wNzguMjUyLjE0NS4zODUuMjAzYTIuOTMgMi45MyAwIDAgMCAuNjM3LjE5NGMuMjk2LjA2LjU5OC4wODguOS4wODdhNS44NCA1Ljg0IDAgMCAwIC45NTUtLjA4NyA3LjI0IDcuMjQgMCAwIDAgMS4xMzgtLjMwMWMuNDUzLS4xNi44OTUtLjM1NCAxLjMyLS41OC41Mi0uMjc0IDEuMDItLjU4IDEuNTAzLS45MThsLTMuNjg1LTMuNi0xMi4yLTEyLjI1OC01LjM1NiA1LjM1Ni03LjIzLTcuNDU1TDguNDQgMzIuNjQ3Yy40OC4zMzcuOTguNjQ0IDEuNS45MTguNDcuMjQ2LjkuNDM0IDEuMzE3LjU4YTcuMTggNy4xOCAwIDAgMCAxLjEzNS4zMDEgNS41MyA1LjUzIDAgMCAwIC45NTUuMDg3IDQuNTMgNC41MyAwIDAgMCAuOS0uMDg3IDMuMjkgMy4yOSAwIDAgMCAuNjM3LS4xOTRjLjEzNC0uMDU0LjI2My0uMTIuMzg1LS4xOTdsLjE0NS0uMTA0IDguMTkzLTguMTkzIDIuOTI0LTIuODA4IDguMTA2IDguMTA2IDIuODM3IDIuOTEyYy4wNDYuMDM3LjA5NC4wNy4xNDUuMS4xMjIuMDc4LjI1LjE0NS4zODUuMmEzLjQ5IDMuNDkgMCAwIDAgLjYzNy4xOTRjLjI1NS4wNTIuNTU2LjA4Ny45MDMuMDg3YTUuODQgNS44NCAwIDAgMCAuOTU1LS4wODdjLjM4Ny0uMDY4Ljc2OC0uMTY4IDEuMTM4LS4zYTkuOTQgOS45NCAwIDAgMCAxLjMyLS41NzljLjUyLS4yNzQgMS4wMi0uNTggMS41MDMtLjkxOGwtNi41MDgtNi4zNyAxLjItMS4yIDUuNjMgNS42MyAzLjI4MyAzLjI1NE00Ny45OTYuMDJsMTUuOTk4IDI3LjcxNC0xNS45OSAyNy42OTRIMTUuOTk4TDAgMjcuNzE0IDE1Ljk5OCAweiIvPjxwYXRoIGQ9Ik0zOC4wMjIgMjYuMzY3TDMzLjc2IDIyLjExbC4zMDQtLjMwNCA0LjMgNC4yNDR6Ii8+PC9nPjwvc3ltYm9sPjwvc3ZnPg==;fontColor=#001135;" vertex="1" parent="rrqrWPFm53r036Y-ru9I-75">
          <mxGeometry x="17.080534351145033" y="5.876543209876559" width="19.679987277353693" height="17.259541984732824" as="geometry" />
        </mxCell>
        <mxCell id="rrqrWPFm53r036Y-ru9I-79" value="" style="group" vertex="1" connectable="0" parent="rrqrWPFm53r036Y-ru9I-1">
          <mxGeometry x="260" y="509.99999999999994" width="53.83333333333337" height="50.99999999999994" as="geometry" />
        </mxCell>
        <mxCell id="rrqrWPFm53r036Y-ru9I-80" value="client1" style="text;html=1;align=center;verticalAlign=middle;resizable=0;points=[];autosize=1;fontSize=12;fontFamily=Manrope;rotation=0;fontSource=https%3A%2F%2Ffonts.googleapis.com%2Fcss%3Ffamily%3DManrope;fontStyle=0;fontColor=#FFFFFF;" vertex="1" parent="rrqrWPFm53r036Y-ru9I-79">
          <mxGeometry x="2" y="30.999999999999943" width="50" height="20" as="geometry" />
        </mxCell>
        <mxCell id="rrqrWPFm53r036Y-ru9I-81" value="" style="group" vertex="1" connectable="0" parent="rrqrWPFm53r036Y-ru9I-79">
          <mxGeometry width="53.83333333333334" height="36.64000000000006" as="geometry" />
        </mxCell>
        <mxCell id="rrqrWPFm53r036Y-ru9I-82" value="" style="rounded=1;whiteSpace=wrap;html=1;strokeColor=none;arcSize=4;" vertex="1" parent="rrqrWPFm53r036Y-ru9I-81">
          <mxGeometry x="6" y="2" width="41" height="24" as="geometry" />
        </mxCell>
        <mxCell id="rrqrWPFm53r036Y-ru9I-83" value="" style="shape=image;editableCssRules=\.color;verticalLabelPosition=bottom;labelBackgroundColor=#ffffff;verticalAlign=top;aspect=fixed;imageAspect=0;image=data:image/svg+xml,PHN2ZyB4bWxucz0iaHR0cDovL3d3dy53My5vcmcvMjAwMC9zdmciIHhtbG5zOnhsaW5rPSJodHRwOi8vd3d3LnczLm9yZy8xOTk5L3hsaW5rIiB2aWV3Qm94PSIwIDAgMTMxIDgxIiBmaWxsPSIjZmZmIiBmaWxsLXJ1bGU9ImV2ZW5vZGQiIHN0cm9rZT0iIzAwMCIgc3Ryb2tlLWxpbmVjYXA9InJvdW5kIiBzdHJva2UtbGluZWpvaW49InJvdW5kIj48dXNlIHhsaW5rOmhyZWY9IiNBIiB4PSIuNSIgeT0iLjUiLz48c3ltYm9sIGlkPSJBIiBvdmVyZmxvdz0idmlzaWJsZSI+PHBhdGggY2xhc3M9ImNvbG9yIiBkPSJNMTE5LjA3OCA2Mi43MDNWNy4yNzVjMC0yLjc0Ni0yLjU0LTcuMjc1LTUuNTgtNy4yNzVIMTYuNDc1Yy0zLjA0IDAtNi4wOCA0LjUzLTYuMDggNy4yNzV2NTUuNDI3Qy0uNDk4IDc0LjI0NC4wMDQgNzQuMjQ0LjAwNCA3NC4yNDQuMDA0IDc3LjUxNiAzLjA0NCA4MCA2Ljg1MiA4MGgxMTYuM2MzLjgwOCAwIDYuODQ4LTIuNzQ3IDYuODQ4LTUuNzU2bC0xMC45MjItMTEuNTR6TTczLjk3NSA3NS4yMzdoLTIwLjI4Yy0xLjAwNCAwLTIuMDM3LS40OTctMi4wMzctLjk5M2wyLjI3My0zLjc3YzAtLjQ5Ny43NjctLjc2IDEuNzctLjc2SDcxLjkxYy43NjcgMCAxLjUzNS4yNjMgMS41MzUuNzZsMi41NCAzLjc3Yy4wMy43My0xLjAwNC45OTMtMi4wMDcuOTkzaDB6bTQwLjI5Mi0xMi43OThIMTUuMjA1VjcuNzcyYzAtMS4yNTYgMS4yNy0zLjAxIDIuNzc1LTMuMDFoOTMuNzVjMS41MzUgMCAyLjU0IDEuNzUzIDIuNTQgM1Y2Mi40NHoiIGZpbGw9IiMyYTMyODIiIHN0cm9rZT0ibm9uZSIvPjwvc3ltYm9sPjxzdHlsZSB0eXBlPSJ0ZXh0L2NzcyI+LmNvbG9yIHsgZmlsbDogcmdiKDAsIDE3LCA1Myk7IH0gPC9zdHlsZT48L3N2Zz4=;" vertex="1" parent="rrqrWPFm53r036Y-ru9I-81">
          <mxGeometry width="53.833333333333336" height="33.28625954198473" as="geometry" />
        </mxCell>
        <mxCell id="rrqrWPFm53r036Y-ru9I-84" value="" style="shape=image;verticalLabelPosition=bottom;labelBackgroundColor=#ffffff;verticalAlign=top;aspect=fixed;imageAspect=0;image=data:image/svg+xml,PHN2ZyB4bWxucz0iaHR0cDovL3d3dy53My5vcmcvMjAwMC9zdmciIHhtbG5zOnhsaW5rPSJodHRwOi8vd3d3LnczLm9yZy8xOTk5L3hsaW5rIiB2aWV3Qm94PSIwIDAgNjUgNTciIGZpbGw9IiNmZmYiIGZpbGwtcnVsZT0iZXZlbm9kZCIgc3Ryb2tlPSIjMDAwIiBzdHJva2UtbGluZWNhcD0icm91bmQiIHN0cm9rZS1saW5lam9pbj0icm91bmQiPjx1c2UgeGxpbms6aHJlZj0iI0EiIHg9Ii41IiB5PSIuNSIvPjxzeW1ib2wgaWQ9IkEiIG92ZXJmbG93PSJ2aXNpYmxlIj48ZyBzdHJva2U9Im5vbmUiIGZpbGw9IiMwZDU5N2YiIGZpbGwtcnVsZT0ibm9uemVybyI+PHBhdGggZD0iTTIzLjI1MiAzNC41Mjd2LTYuNzQ1bC00Ljg1NSA0Ljg2NGMuNDc0LjMzMy45NjguNjM1IDEuNDguOTA2LjQ2My4yNDMuODcuNDM0IDEuMzAzLjU4YTcuOTcgNy45NyAwIDAgMCAxLjEzLjMwNGMuMzQ4LjA2NC42Ni4wOTMuOTUuMDk2bTI0LjgyMi0uNTYyYTEuMTcgMS4xNyAwIDAgMCAuMTQyLjFjLjEyMy4wNzguMjUyLjE0NS4zODUuMjAzYTIuOTMgMi45MyAwIDAgMCAuNjM3LjE5NGMuMjk2LjA2LjU5OC4wODguOS4wODdhNS44NCA1Ljg0IDAgMCAwIC45NTUtLjA4NyA3LjI0IDcuMjQgMCAwIDAgMS4xMzgtLjMwMWMuNDUzLS4xNi44OTUtLjM1NCAxLjMyLS41OC41Mi0uMjc0IDEuMDItLjU4IDEuNTAzLS45MThsLTMuNjg1LTMuNi0xMi4yLTEyLjI1OC01LjM1NiA1LjM1Ni03LjIzLTcuNDU1TDguNDQgMzIuNjQ3Yy40OC4zMzcuOTguNjQ0IDEuNS45MTguNDcuMjQ2LjkuNDM0IDEuMzE3LjU4YTcuMTggNy4xOCAwIDAgMCAxLjEzNS4zMDEgNS41MyA1LjUzIDAgMCAwIC45NTUuMDg3IDQuNTMgNC41MyAwIDAgMCAuOS0uMDg3IDMuMjkgMy4yOSAwIDAgMCAuNjM3LS4xOTRjLjEzNC0uMDU0LjI2My0uMTIuMzg1LS4xOTdsLjE0NS0uMTA0IDguMTkzLTguMTkzIDIuOTI0LTIuODA4IDguMTA2IDguMTA2IDIuODM3IDIuOTEyYy4wNDYuMDM3LjA5NC4wNy4xNDUuMS4xMjIuMDc4LjI1LjE0NS4zODUuMmEzLjQ5IDMuNDkgMCAwIDAgLjYzNy4xOTRjLjI1NS4wNTIuNTU2LjA4Ny45MDMuMDg3YTUuODQgNS44NCAwIDAgMCAuOTU1LS4wODdjLjM4Ny0uMDY4Ljc2OC0uMTY4IDEuMTM4LS4zYTkuOTQgOS45NCAwIDAgMCAxLjMyLS41NzljLjUyLS4yNzQgMS4wMi0uNTggMS41MDMtLjkxOGwtNi41MDgtNi4zNyAxLjItMS4yIDUuNjMgNS42MyAzLjI4MyAzLjI1NE00Ny45OTYuMDJsMTUuOTk4IDI3LjcxNC0xNS45OSAyNy42OTRIMTUuOTk4TDAgMjcuNzE0IDE1Ljk5OCAweiIvPjxwYXRoIGQ9Ik0zOC4wMjIgMjYuMzY3TDMzLjc2IDIyLjExbC4zMDQtLjMwNCA0LjMgNC4yNDR6Ii8+PC9nPjwvc3ltYm9sPjwvc3ZnPg==;fontColor=#001135;" vertex="1" parent="rrqrWPFm53r036Y-ru9I-81">
          <mxGeometry x="17.080534351145033" y="5.876543209876559" width="19.679987277353693" height="17.259541984732824" as="geometry" />
        </mxCell>
        <mxCell id="rrqrWPFm53r036Y-ru9I-86" style="rounded=0;orthogonalLoop=1;jettySize=auto;html=1;fontFamily=Manrope;fontSize=12;fontColor=#FFFFFF;endArrow=oval;endFill=1;startArrow=none;startFill=1;entryX=0.5;entryY=1;entryDx=0;entryDy=0;strokeColor=#98A2AE;exitX=0.25;exitY=0;exitDx=0;exitDy=0;" edge="1" parent="rrqrWPFm53r036Y-ru9I-1" source="rrqrWPFm53r036Y-ru9I-97" target="rrqrWPFm53r036Y-ru9I-16">
          <mxGeometry relative="1" as="geometry">
            <mxPoint x="270" y="510" as="sourcePoint" />
            <mxPoint x="190.5" y="422" as="targetPoint" />
          </mxGeometry>
        </mxCell>
        <mxCell id="rrqrWPFm53r036Y-ru9I-87" style="rounded=0;orthogonalLoop=1;jettySize=auto;html=1;fontFamily=Manrope;fontSize=12;fontColor=#FFFFFF;endArrow=oval;endFill=1;startArrow=none;startFill=1;entryX=0.5;entryY=1;entryDx=0;entryDy=0;strokeColor=#98A2AE;exitX=0.25;exitY=0;exitDx=0;exitDy=0;" edge="1" parent="rrqrWPFm53r036Y-ru9I-1" source="rrqrWPFm53r036Y-ru9I-98" target="rrqrWPFm53r036Y-ru9I-46">
          <mxGeometry relative="1" as="geometry">
            <mxPoint x="530" y="500" as="sourcePoint" />
            <mxPoint x="511.5" y="420" as="targetPoint" />
          </mxGeometry>
        </mxCell>
        <mxCell id="rrqrWPFm53r036Y-ru9I-88" style="rounded=0;orthogonalLoop=1;jettySize=auto;html=1;fontFamily=Manrope;fontSize=12;fontColor=#FFFFFF;endArrow=oval;endFill=1;startArrow=none;startFill=0;strokeColor=#98A2AE;entryX=0.5;entryY=1;entryDx=0;entryDy=0;exitX=0.75;exitY=0;exitDx=0;exitDy=0;" edge="1" parent="rrqrWPFm53r036Y-ru9I-1" source="rrqrWPFm53r036Y-ru9I-98" target="rrqrWPFm53r036Y-ru9I-56">
          <mxGeometry relative="1" as="geometry">
            <mxPoint x="540" y="500" as="sourcePoint" />
            <mxPoint x="665.38" y="476" as="targetPoint" />
          </mxGeometry>
        </mxCell>
        <mxCell id="rrqrWPFm53r036Y-ru9I-91" value="31" style="ellipse;whiteSpace=wrap;html=1;aspect=fixed;fontColor=#FFFFFF;fontSize=8;strokeColor=#98A2AE;fontFamily=Manrope;fontSource=https://fonts.googleapis.com/css?family=Manrope;fillColor=#BEC8D2;strokeWidth=1;" vertex="1" parent="rrqrWPFm53r036Y-ru9I-1">
          <mxGeometry x="453" y="301" width="10" height="10" as="geometry" />
        </mxCell>
        <mxCell id="rrqrWPFm53r036Y-ru9I-92" value="32" style="ellipse;whiteSpace=wrap;html=1;aspect=fixed;fontColor=#FFFFFF;fontSize=8;strokeColor=#98A2AE;fontFamily=Manrope;fontSource=https://fonts.googleapis.com/css?family=Manrope;fillColor=#BEC8D2;strokeWidth=1;" vertex="1" parent="rrqrWPFm53r036Y-ru9I-1">
          <mxGeometry x="463" y="301" width="10" height="10" as="geometry" />
        </mxCell>
        <mxCell id="rrqrWPFm53r036Y-ru9I-93" value="11" style="ellipse;whiteSpace=wrap;html=1;aspect=fixed;fontColor=#FFFFFF;fontSize=8;strokeColor=#98A2AE;fontFamily=Manrope;fontSource=https://fonts.googleapis.com/css?family=Manrope;fillColor=#BEC8D2;strokeWidth=1;" vertex="1" parent="rrqrWPFm53r036Y-ru9I-1">
          <mxGeometry x="443" y="361" width="10" height="10" as="geometry" />
        </mxCell>
        <mxCell id="rrqrWPFm53r036Y-ru9I-94" value="12" style="ellipse;whiteSpace=wrap;html=1;aspect=fixed;fontColor=#FFFFFF;fontSize=8;strokeColor=#98A2AE;fontFamily=Manrope;fontSource=https://fonts.googleapis.com/css?family=Manrope;fillColor=#BEC8D2;strokeWidth=1;" vertex="1" parent="rrqrWPFm53r036Y-ru9I-1">
          <mxGeometry x="453" y="361" width="10" height="10" as="geometry" />
        </mxCell>
        <mxCell id="rrqrWPFm53r036Y-ru9I-95" value="13" style="ellipse;whiteSpace=wrap;html=1;aspect=fixed;fontColor=#FFFFFF;fontSize=8;strokeColor=#98A2AE;fontFamily=Manrope;fontSource=https://fonts.googleapis.com/css?family=Manrope;fillColor=#BEC8D2;strokeWidth=1;" vertex="1" parent="rrqrWPFm53r036Y-ru9I-1">
          <mxGeometry x="463" y="361" width="10" height="10" as="geometry" />
        </mxCell>
        <mxCell id="rrqrWPFm53r036Y-ru9I-96" value="14" style="ellipse;whiteSpace=wrap;html=1;aspect=fixed;fontColor=#FFFFFF;fontSize=8;strokeColor=#98A2AE;fontFamily=Manrope;fontSource=https://fonts.googleapis.com/css?family=Manrope;fillColor=#BEC8D2;strokeWidth=1;" vertex="1" parent="rrqrWPFm53r036Y-ru9I-1">
          <mxGeometry x="473" y="361" width="10" height="10" as="geometry" />
        </mxCell>
        <mxCell id="rrqrWPFm53r036Y-ru9I-97" value="&lt;font style=&quot;font-size: 8px;&quot;&gt;bond0&lt;/font&gt;" style="rounded=1;whiteSpace=wrap;html=1;fontSize=8;strokeWidth=1;fillColor=#BEC8D2;strokeColor=#98A2AE;fontColor=#FFFFFF;fontFamily=Manrope;fontSource=https%3A%2F%2Ffonts.googleapis.com%2Fcss%3Ffamily%3DManrope;" vertex="1" parent="rrqrWPFm53r036Y-ru9I-1">
          <mxGeometry x="272.67" y="498" width="28.5" height="12" as="geometry" />
        </mxCell>
        <mxCell id="rrqrWPFm53r036Y-ru9I-98" value="&lt;font style=&quot;font-size: 8px;&quot;&gt;bond0&lt;/font&gt;" style="rounded=1;whiteSpace=wrap;html=1;fontSize=8;strokeWidth=1;fillColor=#BEC8D2;strokeColor=#98A2AE;fontColor=#FFFFFF;fontFamily=Manrope;fontSource=https%3A%2F%2Ffonts.googleapis.com%2Fcss%3Ffamily%3DManrope;" vertex="1" parent="rrqrWPFm53r036Y-ru9I-1">
          <mxGeometry x="521.75" y="498" width="28.5" height="12" as="geometry" />
        </mxCell>
        <mxCell id="rrqrWPFm53r036Y-ru9I-100" value="" style="group" vertex="1" connectable="0" parent="rrqrWPFm53r036Y-ru9I-1">
          <mxGeometry x="308" y="416" width="50" height="50" as="geometry" />
        </mxCell>
        <mxCell id="rrqrWPFm53r036Y-ru9I-101" value="" style="group" vertex="1" connectable="0" parent="rrqrWPFm53r036Y-ru9I-100">
          <mxGeometry width="50" height="50" as="geometry" />
        </mxCell>
        <mxCell id="rrqrWPFm53r036Y-ru9I-104" value="" style="whiteSpace=wrap;html=1;aspect=fixed;fillColor=#001135;strokeColor=none;connectable=1;allowArrows=1;fontFamily=Manrope;fontSource=https%3A%2F%2Ffonts.googleapis.com%2Fcss%3Ffamily%3DManrope;" vertex="1" parent="rrqrWPFm53r036Y-ru9I-101">
          <mxGeometry width="50" height="50" as="geometry" />
        </mxCell>
        <mxCell id="rrqrWPFm53r036Y-ru9I-105" value="" style="endArrow=open;html=1;edgeStyle=orthogonalEdgeStyle;rounded=0;endFill=0;startSize=6;endSize=2;strokeColor=#FFFFFF;fontFamily=Manrope;fontSource=https%3A%2F%2Ffonts.googleapis.com%2Fcss%3Ffamily%3DManrope;" edge="1" parent="rrqrWPFm53r036Y-ru9I-101">
          <mxGeometry width="83.33333333333334" height="83.33333333333334" as="geometry">
            <mxPoint x="5" y="20" as="sourcePoint" />
            <mxPoint x="18.333333333333336" y="5" as="targetPoint" />
            <Array as="points">
              <mxPoint x="18.333333333333336" y="20" />
            </Array>
          </mxGeometry>
        </mxCell>
        <mxCell id="rrqrWPFm53r036Y-ru9I-106" value="" style="endArrow=open;html=1;edgeStyle=orthogonalEdgeStyle;rounded=0;endFill=0;startSize=6;endSize=2;strokeColor=#FFFFFF;fontFamily=Manrope;fontSource=https%3A%2F%2Ffonts.googleapis.com%2Fcss%3Ffamily%3DManrope;" edge="1" parent="rrqrWPFm53r036Y-ru9I-101">
          <mxGeometry width="83.33333333333334" height="83.33333333333334" as="geometry">
            <mxPoint x="18.333333333333336" y="45" as="sourcePoint" />
            <mxPoint x="5" y="31.666666666666668" as="targetPoint" />
            <Array as="points">
              <mxPoint x="18.333333333333336" y="31.666666666666668" />
            </Array>
          </mxGeometry>
        </mxCell>
        <mxCell id="rrqrWPFm53r036Y-ru9I-107" value="" style="endArrow=open;html=1;edgeStyle=orthogonalEdgeStyle;rounded=0;endFill=0;startSize=6;endSize=2;strokeColor=#FFFFFF;fontFamily=Manrope;fontSource=https%3A%2F%2Ffonts.googleapis.com%2Fcss%3Ffamily%3DManrope;" edge="1" parent="rrqrWPFm53r036Y-ru9I-101">
          <mxGeometry width="83.33333333333334" height="83.33333333333334" as="geometry">
            <mxPoint x="30" y="5" as="sourcePoint" />
            <mxPoint x="45" y="20" as="targetPoint" />
            <Array as="points">
              <mxPoint x="30" y="20" />
            </Array>
          </mxGeometry>
        </mxCell>
        <mxCell id="rrqrWPFm53r036Y-ru9I-108" value="" style="endArrow=open;html=1;edgeStyle=orthogonalEdgeStyle;rounded=0;endFill=0;startSize=6;endSize=2;strokeColor=#FFFFFF;fontFamily=Manrope;fontSource=https%3A%2F%2Ffonts.googleapis.com%2Fcss%3Ffamily%3DManrope;" edge="1" parent="rrqrWPFm53r036Y-ru9I-101">
          <mxGeometry width="83.33333333333334" height="83.33333333333334" as="geometry">
            <mxPoint x="45" y="31.666666666666668" as="sourcePoint" />
            <mxPoint x="30" y="45" as="targetPoint" />
            <Array as="points">
              <mxPoint x="30" y="31.666666666666668" />
            </Array>
          </mxGeometry>
        </mxCell>
        <mxCell id="rrqrWPFm53r036Y-ru9I-102" value="51" style="ellipse;whiteSpace=wrap;html=1;aspect=fixed;fontColor=#FFFFFF;fontSize=8;strokeColor=#98A2AE;fontFamily=Manrope;fontSource=https://fonts.googleapis.com/css?family=Manrope;fillColor=#BEC8D2;strokeWidth=1;" vertex="1" parent="rrqrWPFm53r036Y-ru9I-101">
          <mxGeometry x="15" y="-10" width="10" height="10" as="geometry" />
        </mxCell>
        <mxCell id="rrqrWPFm53r036Y-ru9I-103" value="52" style="ellipse;whiteSpace=wrap;html=1;aspect=fixed;fontColor=#FFFFFF;fontSize=8;strokeColor=#98A2AE;fontFamily=Manrope;fontSource=https://fonts.googleapis.com/css?family=Manrope;fillColor=#BEC8D2;strokeWidth=1;" vertex="1" parent="rrqrWPFm53r036Y-ru9I-101">
          <mxGeometry x="25" y="-10" width="10" height="10" as="geometry" />
        </mxCell>
        <mxCell id="rrqrWPFm53r036Y-ru9I-111" value="" style="whiteSpace=wrap;html=1;aspect=fixed;fillColor=#001135;strokeColor=none;connectable=1;allowArrows=1;fontFamily=Manrope;fontSource=https%3A%2F%2Ffonts.googleapis.com%2Fcss%3Ffamily%3DManrope;" vertex="1" parent="rrqrWPFm53r036Y-ru9I-1">
          <mxGeometry x="339" y="151" width="50" height="50" as="geometry" />
        </mxCell>
        <mxCell id="rrqrWPFm53r036Y-ru9I-112" value="" style="endArrow=open;html=1;edgeStyle=orthogonalEdgeStyle;rounded=0;endFill=0;startSize=6;endSize=2;strokeColor=#FFFFFF;fontFamily=Manrope;fontSource=https%3A%2F%2Ffonts.googleapis.com%2Fcss%3Ffamily%3DManrope;" edge="1" parent="rrqrWPFm53r036Y-ru9I-1">
          <mxGeometry x="339" y="151" width="83.33333333333334" height="83.33333333333334" as="geometry">
            <mxPoint x="344" y="171" as="sourcePoint" />
            <mxPoint x="357.3333333333333" y="156" as="targetPoint" />
            <Array as="points">
              <mxPoint x="357.3333333333333" y="171" />
            </Array>
          </mxGeometry>
        </mxCell>
        <mxCell id="rrqrWPFm53r036Y-ru9I-113" value="" style="endArrow=open;html=1;edgeStyle=orthogonalEdgeStyle;rounded=0;endFill=0;startSize=6;endSize=2;strokeColor=#FFFFFF;fontFamily=Manrope;fontSource=https%3A%2F%2Ffonts.googleapis.com%2Fcss%3Ffamily%3DManrope;" edge="1" parent="rrqrWPFm53r036Y-ru9I-1">
          <mxGeometry x="339" y="151" width="83.33333333333334" height="83.33333333333334" as="geometry">
            <mxPoint x="357.3333333333333" y="196" as="sourcePoint" />
            <mxPoint x="344" y="182.66666666666666" as="targetPoint" />
            <Array as="points">
              <mxPoint x="357.3333333333333" y="182.66666666666666" />
            </Array>
          </mxGeometry>
        </mxCell>
        <mxCell id="rrqrWPFm53r036Y-ru9I-114" value="" style="endArrow=open;html=1;edgeStyle=orthogonalEdgeStyle;rounded=0;endFill=0;startSize=6;endSize=2;strokeColor=#FFFFFF;fontFamily=Manrope;fontSource=https%3A%2F%2Ffonts.googleapis.com%2Fcss%3Ffamily%3DManrope;" edge="1" parent="rrqrWPFm53r036Y-ru9I-1">
          <mxGeometry x="339" y="151" width="83.33333333333334" height="83.33333333333334" as="geometry">
            <mxPoint x="369" y="156" as="sourcePoint" />
            <mxPoint x="384" y="171" as="targetPoint" />
            <Array as="points">
              <mxPoint x="369" y="171" />
            </Array>
          </mxGeometry>
        </mxCell>
        <mxCell id="rrqrWPFm53r036Y-ru9I-115" value="" style="endArrow=open;html=1;edgeStyle=orthogonalEdgeStyle;rounded=0;endFill=0;startSize=6;endSize=2;strokeColor=#FFFFFF;fontFamily=Manrope;fontSource=https%3A%2F%2Ffonts.googleapis.com%2Fcss%3Ffamily%3DManrope;" edge="1" parent="rrqrWPFm53r036Y-ru9I-1">
          <mxGeometry x="339" y="151" width="83.33333333333334" height="83.33333333333334" as="geometry">
            <mxPoint x="384" y="182.66666666666666" as="sourcePoint" />
            <mxPoint x="369" y="196" as="targetPoint" />
            <Array as="points">
              <mxPoint x="369" y="182.66666666666666" />
            </Array>
          </mxGeometry>
        </mxCell>
        <mxCell id="rrqrWPFm53r036Y-ru9I-116" value="&lt;font&gt;dcgw1&lt;/font&gt;" style="text;html=1;align=center;verticalAlign=middle;resizable=0;points=[];autosize=1;fontSize=14;fontFamily=Manrope;fontStyle=0;fontColor=#FFFFFF;" vertex="1" parent="rrqrWPFm53r036Y-ru9I-1">
          <mxGeometry x="338" y="129" width="52" height="22" as="geometry" />
        </mxCell>
        <mxCell id="rrqrWPFm53r036Y-ru9I-117" value="&lt;font&gt;dcgw2&lt;/font&gt;" style="text;html=1;align=center;verticalAlign=middle;resizable=0;points=[];autosize=1;fontSize=14;fontFamily=Manrope;fontStyle=0;fontColor=#FFFFFF;" vertex="1" parent="rrqrWPFm53r036Y-ru9I-1">
          <mxGeometry x="437" y="129" width="54" height="22" as="geometry" />
        </mxCell>
        <mxCell id="rrqrWPFm53r036Y-ru9I-118" value="" style="group" vertex="1" connectable="0" parent="rrqrWPFm53r036Y-ru9I-1">
          <mxGeometry x="439" y="151" width="50" height="50" as="geometry" />
        </mxCell>
        <mxCell id="rrqrWPFm53r036Y-ru9I-119" value="" style="group" vertex="1" connectable="0" parent="rrqrWPFm53r036Y-ru9I-118">
          <mxGeometry width="50" height="50" as="geometry" />
        </mxCell>
        <mxCell id="rrqrWPFm53r036Y-ru9I-120" value="" style="whiteSpace=wrap;html=1;aspect=fixed;fillColor=#001135;strokeColor=none;connectable=1;allowArrows=1;fontFamily=Manrope;fontSource=https%3A%2F%2Ffonts.googleapis.com%2Fcss%3Ffamily%3DManrope;" vertex="1" parent="rrqrWPFm53r036Y-ru9I-119">
          <mxGeometry width="50" height="50" as="geometry" />
        </mxCell>
        <mxCell id="rrqrWPFm53r036Y-ru9I-121" value="" style="endArrow=open;html=1;edgeStyle=orthogonalEdgeStyle;rounded=0;endFill=0;startSize=6;endSize=2;strokeColor=#FFFFFF;fontFamily=Manrope;fontSource=https%3A%2F%2Ffonts.googleapis.com%2Fcss%3Ffamily%3DManrope;" edge="1" parent="rrqrWPFm53r036Y-ru9I-119">
          <mxGeometry width="83.33333333333334" height="83.33333333333334" as="geometry">
            <mxPoint x="5" y="20" as="sourcePoint" />
            <mxPoint x="18.333333333333336" y="5" as="targetPoint" />
            <Array as="points">
              <mxPoint x="18.333333333333336" y="20" />
            </Array>
          </mxGeometry>
        </mxCell>
        <mxCell id="rrqrWPFm53r036Y-ru9I-122" value="" style="endArrow=open;html=1;edgeStyle=orthogonalEdgeStyle;rounded=0;endFill=0;startSize=6;endSize=2;strokeColor=#FFFFFF;fontFamily=Manrope;fontSource=https%3A%2F%2Ffonts.googleapis.com%2Fcss%3Ffamily%3DManrope;" edge="1" parent="rrqrWPFm53r036Y-ru9I-119">
          <mxGeometry width="83.33333333333334" height="83.33333333333334" as="geometry">
            <mxPoint x="18.333333333333336" y="45" as="sourcePoint" />
            <mxPoint x="5" y="31.666666666666668" as="targetPoint" />
            <Array as="points">
              <mxPoint x="18.333333333333336" y="31.666666666666668" />
            </Array>
          </mxGeometry>
        </mxCell>
        <mxCell id="rrqrWPFm53r036Y-ru9I-123" value="" style="endArrow=open;html=1;edgeStyle=orthogonalEdgeStyle;rounded=0;endFill=0;startSize=6;endSize=2;strokeColor=#FFFFFF;fontFamily=Manrope;fontSource=https%3A%2F%2Ffonts.googleapis.com%2Fcss%3Ffamily%3DManrope;" edge="1" parent="rrqrWPFm53r036Y-ru9I-119">
          <mxGeometry width="83.33333333333334" height="83.33333333333334" as="geometry">
            <mxPoint x="30" y="5" as="sourcePoint" />
            <mxPoint x="45" y="20" as="targetPoint" />
            <Array as="points">
              <mxPoint x="30" y="20" />
            </Array>
          </mxGeometry>
        </mxCell>
        <mxCell id="rrqrWPFm53r036Y-ru9I-124" value="" style="endArrow=open;html=1;edgeStyle=orthogonalEdgeStyle;rounded=0;endFill=0;startSize=6;endSize=2;strokeColor=#FFFFFF;fontFamily=Manrope;fontSource=https%3A%2F%2Ffonts.googleapis.com%2Fcss%3Ffamily%3DManrope;" edge="1" parent="rrqrWPFm53r036Y-ru9I-119">
          <mxGeometry width="83.33333333333334" height="83.33333333333334" as="geometry">
            <mxPoint x="45" y="31.666666666666668" as="sourcePoint" />
            <mxPoint x="30" y="45" as="targetPoint" />
            <Array as="points">
              <mxPoint x="30" y="31.666666666666668" />
            </Array>
          </mxGeometry>
        </mxCell>
        <mxCell id="rrqrWPFm53r036Y-ru9I-125" value="&lt;font color=&quot;#001135&quot; style=&quot;font-size: 8px ; line-height: 100%&quot;&gt;&lt;br&gt;&lt;/font&gt;" style="rounded=1;whiteSpace=wrap;html=1;fontFamily=Manrope;fontSource=https%3A%2F%2Ffonts.googleapis.com%2Fcss%3Ffamily%3DManrope;fontSize=16;fontColor=#FFFFFF;spacing=0;arcSize=7;fillColor=#00C9FF;strokeColor=none;" vertex="1" parent="rrqrWPFm53r036Y-ru9I-1">
          <mxGeometry x="319" y="140" width="24" height="17" as="geometry" />
        </mxCell>
        <mxCell id="rrqrWPFm53r036Y-ru9I-126" value="&lt;font style=&quot;font-size: 8px;&quot;&gt;SR&lt;/font&gt;" style="text;html=1;align=center;verticalAlign=middle;resizable=0;points=[];autosize=1;strokeColor=none;fillColor=none;fontSize=8;fontFamily=Manrope;fontColor=#FFFFFF;" vertex="1" parent="rrqrWPFm53r036Y-ru9I-1">
          <mxGeometry x="319" y="137" width="21" height="15" as="geometry" />
        </mxCell>
        <mxCell id="rrqrWPFm53r036Y-ru9I-127" value="&lt;font style=&quot;font-size: 8px&quot;&gt;OS&lt;/font&gt;" style="text;html=1;align=center;verticalAlign=middle;resizable=0;points=[];autosize=1;strokeColor=none;fillColor=none;fontSize=8;fontFamily=Manrope;fontColor=#FFFFFF;" vertex="1" parent="rrqrWPFm53r036Y-ru9I-1">
          <mxGeometry x="319" y="145" width="22" height="15" as="geometry" />
        </mxCell>
        <mxCell id="rrqrWPFm53r036Y-ru9I-128" value="&lt;font color=&quot;#001135&quot; style=&quot;font-size: 8px ; line-height: 100%&quot;&gt;&lt;br&gt;&lt;/font&gt;" style="rounded=1;whiteSpace=wrap;html=1;fontFamily=Manrope;fontSource=https%3A%2F%2Ffonts.googleapis.com%2Fcss%3Ffamily%3DManrope;fontSize=16;fontColor=#FFFFFF;spacing=0;arcSize=7;fillColor=#00C9FF;strokeColor=none;" vertex="1" parent="rrqrWPFm53r036Y-ru9I-1">
          <mxGeometry x="418" y="141" width="24" height="17" as="geometry" />
        </mxCell>
        <mxCell id="rrqrWPFm53r036Y-ru9I-129" value="&lt;font style=&quot;font-size: 8px;&quot;&gt;SR&lt;/font&gt;" style="text;html=1;align=center;verticalAlign=middle;resizable=0;points=[];autosize=1;strokeColor=none;fillColor=none;fontSize=8;fontFamily=Manrope;fontColor=#FFFFFF;" vertex="1" parent="rrqrWPFm53r036Y-ru9I-1">
          <mxGeometry x="418.5" y="137" width="21" height="15" as="geometry" />
        </mxCell>
        <mxCell id="rrqrWPFm53r036Y-ru9I-130" value="&lt;font style=&quot;font-size: 8px;&quot;&gt;OS&lt;/font&gt;" style="text;html=1;align=center;verticalAlign=middle;resizable=0;points=[];autosize=1;strokeColor=none;fillColor=none;fontSize=8;fontFamily=Manrope;fontColor=#FFFFFF;" vertex="1" parent="rrqrWPFm53r036Y-ru9I-1">
          <mxGeometry x="414.5" y="142" width="29" height="22" as="geometry" />
        </mxCell>
        <mxCell id="76OoQfZU83p_wVyPRKfj-0" value="&lt;b&gt;&lt;u&gt;DCGW-spine link&lt;br&gt;&lt;/u&gt;&lt;/b&gt;&lt;br&gt;&lt;b&gt;100.3X.2Y.Z/30&lt;br&gt;&lt;/b&gt;&lt;br&gt;where &lt;br&gt;&lt;b&gt;X&lt;/b&gt; is the DCGW ID&amp;nbsp; (e.g. DCGW&lt;b style=&quot;&quot;&gt;&lt;u&gt;2&lt;/u&gt;&amp;nbsp;&lt;/b&gt;has ID 2)&lt;br&gt;&lt;b&gt;Y&lt;/b&gt; is the spine ID&lt;br&gt;&lt;b&gt;Z&lt;/b&gt; is 1 for DCGWs, 2 for spines" style="rounded=1;whiteSpace=wrap;html=1;labelBackgroundColor=none;fontFamily=Manrope;fontSource=https%3A%2F%2Ffonts.googleapis.com%2Fcss%3Ffamily%3DManrope;fontSize=11;fontColor=#FFFFFF;fillColor=#FFFFFF;strokeColor=none;opacity=10;rotation=0;" vertex="1" parent="rrqrWPFm53r036Y-ru9I-1">
          <mxGeometry x="662" y="209" width="161" height="135" as="geometry" />
        </mxCell>
        <mxCell id="76OoQfZU83p_wVyPRKfj-1" value="&lt;b&gt;&lt;u&gt;Spine-leaf link&lt;/u&gt;&lt;/b&gt;&lt;br&gt;&lt;b&gt;100.2X.1Y.Z/30&lt;br&gt;&lt;/b&gt;&lt;br&gt;where &lt;br&gt;&lt;b&gt;X&lt;/b&gt; is the spine ID&amp;nbsp;&lt;br&gt;&lt;b&gt;Y&lt;/b&gt; is the leaf ID&lt;br&gt;&lt;b&gt;Z&lt;/b&gt; is 1 for spines, 2 for leafs" style="rounded=1;whiteSpace=wrap;html=1;labelBackgroundColor=none;fontFamily=Manrope;fontSource=https%3A%2F%2Ffonts.googleapis.com%2Fcss%3Ffamily%3DManrope;fontSize=11;fontColor=#FFFFFF;fillColor=#FFFFFF;strokeColor=none;opacity=10;rotation=0;" vertex="1" parent="rrqrWPFm53r036Y-ru9I-1">
          <mxGeometry x="662" y="354" width="161" height="110.5" as="geometry" />
        </mxCell>
        <mxCell id="FM_xOdNSpWOxx1qz4b_u-0" value="&lt;font style=&quot;font-size: 16px;&quot;&gt;Topology and underlay addressing plan&lt;/font&gt;" style="text;html=1;align=center;verticalAlign=middle;resizable=0;points=[];autosize=1;fontSize=16;fontFamily=Manrope;fontStyle=1;fontColor=#FFFFFF;" vertex="1" parent="rrqrWPFm53r036Y-ru9I-1">
          <mxGeometry x="261" y="578" width="304" height="31" as="geometry" />
        </mxCell>
        <mxCell id="rrqrWPFm53r036Y-ru9I-2" value="1" style="ellipse;whiteSpace=wrap;html=1;aspect=fixed;fontColor=#FFFFFF;fontSize=8;strokeColor=#98A2AE;fontFamily=Manrope;fontSource=https://fonts.googleapis.com/css?family=Manrope;fillColor=#BEC8D2;strokeWidth=1;" vertex="1" parent="rrqrWPFm53r036Y-ru9I-1">
          <mxGeometry x="454" y="201" width="10" height="10" as="geometry" />
        </mxCell>
        <mxCell id="rrqrWPFm53r036Y-ru9I-3" value="2" style="ellipse;whiteSpace=wrap;html=1;aspect=fixed;fontColor=#FFFFFF;fontSize=8;strokeColor=#98A2AE;fontFamily=Manrope;fontSource=https://fonts.googleapis.com/css?family=Manrope;fillColor=#BEC8D2;strokeWidth=1;" vertex="1" parent="rrqrWPFm53r036Y-ru9I-1">
          <mxGeometry x="464" y="201" width="10" height="10" as="geometry" />
        </mxCell>
        <mxCell id="rrqrWPFm53r036Y-ru9I-6" value="1" style="ellipse;whiteSpace=wrap;html=1;aspect=fixed;fontColor=#FFFFFF;fontSize=8;strokeColor=#98A2AE;fontFamily=Manrope;fontSource=https://fonts.googleapis.com/css?family=Manrope;fillColor=#BEC8D2;strokeWidth=1;" vertex="1" parent="rrqrWPFm53r036Y-ru9I-1">
          <mxGeometry x="354" y="201" width="10" height="10" as="geometry" />
        </mxCell>
        <mxCell id="rrqrWPFm53r036Y-ru9I-7" value="2" style="ellipse;whiteSpace=wrap;html=1;aspect=fixed;fontColor=#FFFFFF;fontSize=8;strokeColor=#98A2AE;fontFamily=Manrope;fontSource=https://fonts.googleapis.com/css?family=Manrope;fillColor=#BEC8D2;strokeWidth=1;" vertex="1" parent="rrqrWPFm53r036Y-ru9I-1">
          <mxGeometry x="364" y="201" width="10" height="10" as="geometry" />
        </mxCell>
        <mxCell id="rrqrWPFm53r036Y-ru9I-21" value="51" style="ellipse;whiteSpace=wrap;html=1;aspect=fixed;fontColor=#FFFFFF;fontSize=8;strokeColor=#98A2AE;fontFamily=Manrope;fontSource=https://fonts.googleapis.com/css?family=Manrope;fillColor=#BEC8D2;strokeWidth=1;" vertex="1" parent="rrqrWPFm53r036Y-ru9I-1">
          <mxGeometry x="476" y="406" width="10" height="10" as="geometry" />
        </mxCell>
        <mxCell id="rrqrWPFm53r036Y-ru9I-22" value="52" style="ellipse;whiteSpace=wrap;html=1;aspect=fixed;fontColor=#FFFFFF;fontSize=8;strokeColor=#98A2AE;fontFamily=Manrope;fontSource=https://fonts.googleapis.com/css?family=Manrope;fillColor=#BEC8D2;strokeWidth=1;" vertex="1" parent="rrqrWPFm53r036Y-ru9I-1">
          <mxGeometry x="486" y="406" width="10" height="10" as="geometry" />
        </mxCell>
        <mxCell id="rrqrWPFm53r036Y-ru9I-85" style="rounded=0;orthogonalLoop=1;jettySize=auto;html=1;fontFamily=Manrope;fontSize=12;fontColor=#FFFFFF;endArrow=oval;endFill=1;startArrow=none;startFill=0;strokeColor=#98A2AE;entryX=0.5;entryY=1;entryDx=0;entryDy=0;exitX=0.75;exitY=0;exitDx=0;exitDy=0;" edge="1" parent="rrqrWPFm53r036Y-ru9I-1" source="rrqrWPFm53r036Y-ru9I-97" target="rrqrWPFm53r036Y-ru9I-104">
          <mxGeometry relative="1" as="geometry">
            <mxPoint x="300" y="500" as="sourcePoint" />
            <mxPoint x="344.38" y="478" as="targetPoint" />
          </mxGeometry>
        </mxCell>
        <mxCell id="jnXE43xZcE7EhlQWFzud-0" value="&lt;b&gt;&lt;u&gt;System IP&lt;/u&gt;&lt;/b&gt;&lt;br&gt;&lt;b&gt;10.0.0.XY/32&lt;br&gt;&lt;/b&gt;&lt;br&gt;where &lt;br&gt;&lt;b&gt;X&lt;/b&gt; is 1 for leaf, 2 for spine, 3 for DCGW&amp;nbsp;&lt;br&gt;&lt;b&gt;Y&lt;/b&gt; is the node ID" style="rounded=1;whiteSpace=wrap;html=1;labelBackgroundColor=none;fontFamily=Manrope;fontSource=https%3A%2F%2Ffonts.googleapis.com%2Fcss%3Ffamily%3DManrope;fontSize=11;fontColor=#FFFFFF;fillColor=#FFFFFF;strokeColor=none;opacity=10;rotation=0;" vertex="1" parent="rrqrWPFm53r036Y-ru9I-1">
          <mxGeometry x="662" y="475" width="161" height="105" as="geometry" />
        </mxCell>
        <mxCell id="jnXE43xZcE7EhlQWFzud-1" value="A &lt;b&gt;node ID&lt;/b&gt; is defined by the number at the end of its name, e.g. DCGW&lt;u style=&quot;font-weight: bold;&quot;&gt;2&lt;/u&gt;&amp;nbsp;has ID &lt;b&gt;2&lt;/b&gt;)" style="rounded=1;whiteSpace=wrap;html=1;labelBackgroundColor=none;fontFamily=Manrope;fontSource=https%3A%2F%2Ffonts.googleapis.com%2Fcss%3Ffamily%3DManrope;fontSize=11;fontColor=#FFFFFF;fillColor=#FFFFFF;strokeColor=none;opacity=10;rotation=0;" vertex="1" parent="rrqrWPFm53r036Y-ru9I-1">
          <mxGeometry x="662" y="129" width="161" height="70" as="geometry" />
        </mxCell>
      </root>
    </mxGraphModel>
  </diagram>
  <diagram name="[2]" id="ED_UcLIz2N2Hw9e4UdbA">
    <mxGraphModel dx="840" dy="487" grid="0" gridSize="1" guides="1" tooltips="1" connect="1" arrows="1" fold="1" page="1" pageScale="1" pageWidth="850" pageHeight="1100" background="#495766" math="0" shadow="0">
      <root>
        <mxCell id="tuzMwipLeWRuzpTrGQp2-0" />
        <mxCell id="tuzMwipLeWRuzpTrGQp2-1" parent="tuzMwipLeWRuzpTrGQp2-0" />
        <mxCell id="tuzMwipLeWRuzpTrGQp2-119" value="1" style="ellipse;whiteSpace=wrap;html=1;aspect=fixed;fontColor=#FFFFFF;fontSize=8;strokeColor=#98A2AE;fontFamily=Manrope;fontSource=https://fonts.googleapis.com/css?family=Manrope;fillColor=#BEC8D2;strokeWidth=1;" parent="tuzMwipLeWRuzpTrGQp2-1" vertex="1">
          <mxGeometry x="454" y="201" width="10" height="10" as="geometry" />
        </mxCell>
        <mxCell id="tuzMwipLeWRuzpTrGQp2-120" value="2" style="ellipse;whiteSpace=wrap;html=1;aspect=fixed;fontColor=#FFFFFF;fontSize=8;strokeColor=#98A2AE;fontFamily=Manrope;fontSource=https://fonts.googleapis.com/css?family=Manrope;fillColor=#BEC8D2;strokeWidth=1;" parent="tuzMwipLeWRuzpTrGQp2-1" vertex="1">
          <mxGeometry x="464" y="201" width="10" height="10" as="geometry" />
        </mxCell>
        <mxCell id="tuzMwipLeWRuzpTrGQp2-87" style="rounded=0;orthogonalLoop=1;jettySize=auto;html=1;fontFamily=Manrope;fontSize=12;fontColor=#FFFFFF;endArrow=none;endFill=0;startArrow=none;startFill=0;strokeColor=#98A2AE;endSize=6;startSize=6;exitX=1;exitY=1;exitDx=0;exitDy=0;entryX=0;entryY=0;entryDx=0;entryDy=0;" parent="tuzMwipLeWRuzpTrGQp2-1" source="tuzMwipLeWRuzpTrGQp2-75" target="tuzMwipLeWRuzpTrGQp2-117" edge="1">
          <mxGeometry relative="1" as="geometry">
            <mxPoint x="464" y="259" as="sourcePoint" />
            <mxPoint x="364" y="312" as="targetPoint" />
          </mxGeometry>
        </mxCell>
        <mxCell id="tuzMwipLeWRuzpTrGQp2-74" style="rounded=0;orthogonalLoop=1;jettySize=auto;html=1;fontFamily=Manrope;fontSize=12;fontColor=#FFFFFF;endArrow=none;endFill=0;startArrow=none;startFill=0;entryX=0.5;entryY=0;entryDx=0;entryDy=0;strokeColor=#98A2AE;endSize=6;startSize=6;exitX=0.5;exitY=1;exitDx=0;exitDy=0;" parent="tuzMwipLeWRuzpTrGQp2-1" source="tuzMwipLeWRuzpTrGQp2-73" target="tuzMwipLeWRuzpTrGQp2-71" edge="1">
          <mxGeometry relative="1" as="geometry">
            <mxPoint x="239" y="261" as="sourcePoint" />
            <mxPoint x="200" y="306" as="targetPoint" />
          </mxGeometry>
        </mxCell>
        <mxCell id="tuzMwipLeWRuzpTrGQp2-73" value="1" style="ellipse;whiteSpace=wrap;html=1;aspect=fixed;fontColor=#FFFFFF;fontSize=8;strokeColor=#98A2AE;fontFamily=Manrope;fontSource=https://fonts.googleapis.com/css?family=Manrope;fillColor=#BEC8D2;strokeWidth=1;" parent="tuzMwipLeWRuzpTrGQp2-1" vertex="1">
          <mxGeometry x="354" y="201" width="10" height="10" as="geometry" />
        </mxCell>
        <mxCell id="tuzMwipLeWRuzpTrGQp2-75" value="2" style="ellipse;whiteSpace=wrap;html=1;aspect=fixed;fontColor=#FFFFFF;fontSize=8;strokeColor=#98A2AE;fontFamily=Manrope;fontSource=https://fonts.googleapis.com/css?family=Manrope;fillColor=#BEC8D2;strokeWidth=1;" parent="tuzMwipLeWRuzpTrGQp2-1" vertex="1">
          <mxGeometry x="364" y="201" width="10" height="10" as="geometry" />
        </mxCell>
        <mxCell id="tuzMwipLeWRuzpTrGQp2-61" style="rounded=0;orthogonalLoop=1;jettySize=auto;html=1;fontFamily=Manrope;fontSize=12;fontColor=#FFFFFF;endArrow=none;endFill=0;startArrow=none;startFill=0;entryX=0;entryY=0;entryDx=0;entryDy=0;strokeColor=#98A2AE;exitX=1;exitY=1;exitDx=0;exitDy=0;" parent="tuzMwipLeWRuzpTrGQp2-1" source="tuzMwipLeWRuzpTrGQp2-32" target="tuzMwipLeWRuzpTrGQp2-59" edge="1">
          <mxGeometry relative="1" as="geometry">
            <mxPoint x="381" y="369" as="sourcePoint" />
            <mxPoint x="511.5" y="420" as="targetPoint" />
          </mxGeometry>
        </mxCell>
        <mxCell id="tuzMwipLeWRuzpTrGQp2-64" style="rounded=0;orthogonalLoop=1;jettySize=auto;html=1;fontFamily=Manrope;fontSize=12;fontColor=#FFFFFF;endArrow=none;endFill=0;startArrow=none;startFill=0;entryX=0.5;entryY=0;entryDx=0;entryDy=0;strokeColor=#98A2AE;exitX=1;exitY=1;exitDx=0;exitDy=0;" parent="tuzMwipLeWRuzpTrGQp2-1" source="tuzMwipLeWRuzpTrGQp2-126" target="tuzMwipLeWRuzpTrGQp2-60" edge="1">
          <mxGeometry relative="1" as="geometry">
            <mxPoint x="491" y="368" as="sourcePoint" />
            <mxPoint x="633.8800000000001" y="411" as="targetPoint" />
          </mxGeometry>
        </mxCell>
        <mxCell id="tuzMwipLeWRuzpTrGQp2-43" style="rounded=0;orthogonalLoop=1;jettySize=auto;html=1;fontFamily=Manrope;fontSize=12;fontColor=#FFFFFF;endArrow=none;endFill=0;startArrow=none;startFill=0;entryX=1;entryY=0;entryDx=0;entryDy=0;strokeColor=#98A2AE;exitX=0.5;exitY=1;exitDx=0;exitDy=0;" parent="tuzMwipLeWRuzpTrGQp2-1" source="tuzMwipLeWRuzpTrGQp2-124" target="tuzMwipLeWRuzpTrGQp2-20" edge="1">
          <mxGeometry relative="1" as="geometry">
            <mxPoint x="462" y="368" as="sourcePoint" />
            <mxPoint x="312.8800000000001" y="413" as="targetPoint" />
          </mxGeometry>
        </mxCell>
        <mxCell id="tuzMwipLeWRuzpTrGQp2-33" style="rounded=0;orthogonalLoop=1;jettySize=auto;html=1;fontFamily=Manrope;fontSize=12;fontColor=#FFFFFF;endArrow=none;endFill=0;startArrow=none;startFill=0;entryX=0.5;entryY=0;entryDx=0;entryDy=0;exitX=0.5;exitY=1;exitDx=0;exitDy=0;strokeColor=#98A2AE;" parent="tuzMwipLeWRuzpTrGQp2-1" source="tuzMwipLeWRuzpTrGQp2-30" target="tuzMwipLeWRuzpTrGQp2-19" edge="1">
          <mxGeometry relative="1" as="geometry">
            <mxPoint x="247.5" y="368" as="sourcePoint" />
            <mxPoint x="190.5" y="422" as="targetPoint" />
          </mxGeometry>
        </mxCell>
        <mxCell id="tuzMwipLeWRuzpTrGQp2-2" value="" style="group" parent="tuzMwipLeWRuzpTrGQp2-1" vertex="1" connectable="0">
          <mxGeometry x="207" y="416" width="50" height="50" as="geometry" />
        </mxCell>
        <mxCell id="tuzMwipLeWRuzpTrGQp2-3" value="" style="group" parent="tuzMwipLeWRuzpTrGQp2-2" vertex="1" connectable="0">
          <mxGeometry width="50" height="50" as="geometry" />
        </mxCell>
        <mxCell id="tuzMwipLeWRuzpTrGQp2-9" value="51" style="ellipse;whiteSpace=wrap;html=1;aspect=fixed;fontColor=#FFFFFF;fontSize=8;strokeColor=#98A2AE;fontFamily=Manrope;fontSource=https://fonts.googleapis.com/css?family=Manrope;fillColor=#BEC8D2;strokeWidth=1;" parent="tuzMwipLeWRuzpTrGQp2-3" vertex="1">
          <mxGeometry x="15" y="-10" width="10" height="10" as="geometry" />
        </mxCell>
        <mxCell id="tuzMwipLeWRuzpTrGQp2-10" value="52" style="ellipse;whiteSpace=wrap;html=1;aspect=fixed;fontColor=#FFFFFF;fontSize=8;strokeColor=#98A2AE;fontFamily=Manrope;fontSource=https://fonts.googleapis.com/css?family=Manrope;fillColor=#BEC8D2;strokeWidth=1;" parent="tuzMwipLeWRuzpTrGQp2-3" vertex="1">
          <mxGeometry x="25" y="-10" width="10" height="10" as="geometry" />
        </mxCell>
        <mxCell id="tuzMwipLeWRuzpTrGQp2-4" value="" style="whiteSpace=wrap;html=1;aspect=fixed;fillColor=#001135;strokeColor=none;connectable=1;allowArrows=1;fontFamily=Manrope;fontSource=https%3A%2F%2Ffonts.googleapis.com%2Fcss%3Ffamily%3DManrope;" parent="tuzMwipLeWRuzpTrGQp2-3" vertex="1">
          <mxGeometry width="50" height="50" as="geometry" />
        </mxCell>
        <mxCell id="tuzMwipLeWRuzpTrGQp2-5" value="" style="endArrow=open;html=1;edgeStyle=orthogonalEdgeStyle;rounded=0;endFill=0;startSize=6;endSize=2;strokeColor=#FFFFFF;fontFamily=Manrope;fontSource=https%3A%2F%2Ffonts.googleapis.com%2Fcss%3Ffamily%3DManrope;" parent="tuzMwipLeWRuzpTrGQp2-3" edge="1">
          <mxGeometry width="83.33333333333334" height="83.33333333333334" as="geometry">
            <mxPoint x="5" y="20" as="sourcePoint" />
            <mxPoint x="18.333333333333336" y="5" as="targetPoint" />
            <Array as="points">
              <mxPoint x="18.333333333333336" y="20" />
            </Array>
          </mxGeometry>
        </mxCell>
        <mxCell id="tuzMwipLeWRuzpTrGQp2-6" value="" style="endArrow=open;html=1;edgeStyle=orthogonalEdgeStyle;rounded=0;endFill=0;startSize=6;endSize=2;strokeColor=#FFFFFF;fontFamily=Manrope;fontSource=https%3A%2F%2Ffonts.googleapis.com%2Fcss%3Ffamily%3DManrope;" parent="tuzMwipLeWRuzpTrGQp2-3" edge="1">
          <mxGeometry width="83.33333333333334" height="83.33333333333334" as="geometry">
            <mxPoint x="18.333333333333336" y="45" as="sourcePoint" />
            <mxPoint x="5" y="31.666666666666668" as="targetPoint" />
            <Array as="points">
              <mxPoint x="18.333333333333336" y="31.666666666666668" />
            </Array>
          </mxGeometry>
        </mxCell>
        <mxCell id="tuzMwipLeWRuzpTrGQp2-7" value="" style="endArrow=open;html=1;edgeStyle=orthogonalEdgeStyle;rounded=0;endFill=0;startSize=6;endSize=2;strokeColor=#FFFFFF;fontFamily=Manrope;fontSource=https%3A%2F%2Ffonts.googleapis.com%2Fcss%3Ffamily%3DManrope;" parent="tuzMwipLeWRuzpTrGQp2-3" edge="1">
          <mxGeometry width="83.33333333333334" height="83.33333333333334" as="geometry">
            <mxPoint x="30" y="5" as="sourcePoint" />
            <mxPoint x="45" y="20" as="targetPoint" />
            <Array as="points">
              <mxPoint x="30" y="20" />
            </Array>
          </mxGeometry>
        </mxCell>
        <mxCell id="tuzMwipLeWRuzpTrGQp2-8" value="" style="endArrow=open;html=1;edgeStyle=orthogonalEdgeStyle;rounded=0;endFill=0;startSize=6;endSize=2;strokeColor=#FFFFFF;fontFamily=Manrope;fontSource=https%3A%2F%2Ffonts.googleapis.com%2Fcss%3Ffamily%3DManrope;" parent="tuzMwipLeWRuzpTrGQp2-3" edge="1">
          <mxGeometry width="83.33333333333334" height="83.33333333333334" as="geometry">
            <mxPoint x="45" y="31.666666666666668" as="sourcePoint" />
            <mxPoint x="30" y="45" as="targetPoint" />
            <Array as="points">
              <mxPoint x="30" y="31.666666666666668" />
            </Array>
          </mxGeometry>
        </mxCell>
        <mxCell id="tuzMwipLeWRuzpTrGQp2-121" value="51" style="ellipse;whiteSpace=wrap;html=1;aspect=fixed;fontColor=#FFFFFF;fontSize=8;strokeColor=#98A2AE;fontFamily=Manrope;fontSource=https://fonts.googleapis.com/css?family=Manrope;fillColor=#BEC8D2;strokeWidth=1;" parent="tuzMwipLeWRuzpTrGQp2-1" vertex="1">
          <mxGeometry x="476" y="406" width="10" height="10" as="geometry" />
        </mxCell>
        <mxCell id="tuzMwipLeWRuzpTrGQp2-122" value="52" style="ellipse;whiteSpace=wrap;html=1;aspect=fixed;fontColor=#FFFFFF;fontSize=8;strokeColor=#98A2AE;fontFamily=Manrope;fontSource=https://fonts.googleapis.com/css?family=Manrope;fillColor=#BEC8D2;strokeWidth=1;" parent="tuzMwipLeWRuzpTrGQp2-1" vertex="1">
          <mxGeometry x="486" y="406" width="10" height="10" as="geometry" />
        </mxCell>
        <mxCell id="tuzMwipLeWRuzpTrGQp2-21" value="&lt;font&gt;spine1&lt;/font&gt;" style="text;html=1;align=center;verticalAlign=middle;resizable=0;points=[];autosize=1;fontSize=14;fontFamily=Manrope;fontStyle=0;fontColor=#FFFFFF;" parent="tuzMwipLeWRuzpTrGQp2-1" vertex="1">
          <mxGeometry x="277" y="326" width="60" height="20" as="geometry" />
        </mxCell>
        <mxCell id="tuzMwipLeWRuzpTrGQp2-22" value="" style="group" parent="tuzMwipLeWRuzpTrGQp2-1" vertex="1" connectable="0">
          <mxGeometry x="338" y="311" width="50" height="60" as="geometry" />
        </mxCell>
        <mxCell id="tuzMwipLeWRuzpTrGQp2-23" value="" style="group" parent="tuzMwipLeWRuzpTrGQp2-22" vertex="1" connectable="0">
          <mxGeometry width="50" height="60" as="geometry" />
        </mxCell>
        <mxCell id="tuzMwipLeWRuzpTrGQp2-24" value="" style="whiteSpace=wrap;html=1;aspect=fixed;fillColor=#001135;strokeColor=none;connectable=1;allowArrows=1;fontFamily=Manrope;fontSource=https%3A%2F%2Ffonts.googleapis.com%2Fcss%3Ffamily%3DManrope;" parent="tuzMwipLeWRuzpTrGQp2-23" vertex="1">
          <mxGeometry width="50" height="50" as="geometry" />
        </mxCell>
        <mxCell id="tuzMwipLeWRuzpTrGQp2-25" value="" style="endArrow=open;html=1;edgeStyle=orthogonalEdgeStyle;rounded=0;endFill=0;startSize=6;endSize=2;strokeColor=#FFFFFF;fontFamily=Manrope;fontSource=https%3A%2F%2Ffonts.googleapis.com%2Fcss%3Ffamily%3DManrope;" parent="tuzMwipLeWRuzpTrGQp2-23" edge="1">
          <mxGeometry width="83.33333333333334" height="83.33333333333334" as="geometry">
            <mxPoint x="5" y="20" as="sourcePoint" />
            <mxPoint x="18.333333333333336" y="5" as="targetPoint" />
            <Array as="points">
              <mxPoint x="18.333333333333336" y="20" />
            </Array>
          </mxGeometry>
        </mxCell>
        <mxCell id="tuzMwipLeWRuzpTrGQp2-26" value="" style="endArrow=open;html=1;edgeStyle=orthogonalEdgeStyle;rounded=0;endFill=0;startSize=6;endSize=2;strokeColor=#FFFFFF;fontFamily=Manrope;fontSource=https%3A%2F%2Ffonts.googleapis.com%2Fcss%3Ffamily%3DManrope;" parent="tuzMwipLeWRuzpTrGQp2-23" edge="1">
          <mxGeometry width="83.33333333333334" height="83.33333333333334" as="geometry">
            <mxPoint x="18.333333333333336" y="45" as="sourcePoint" />
            <mxPoint x="5" y="31.666666666666668" as="targetPoint" />
            <Array as="points">
              <mxPoint x="18.333333333333336" y="31.666666666666668" />
            </Array>
          </mxGeometry>
        </mxCell>
        <mxCell id="tuzMwipLeWRuzpTrGQp2-27" value="" style="endArrow=open;html=1;edgeStyle=orthogonalEdgeStyle;rounded=0;endFill=0;startSize=6;endSize=2;strokeColor=#FFFFFF;fontFamily=Manrope;fontSource=https%3A%2F%2Ffonts.googleapis.com%2Fcss%3Ffamily%3DManrope;" parent="tuzMwipLeWRuzpTrGQp2-23" edge="1">
          <mxGeometry width="83.33333333333334" height="83.33333333333334" as="geometry">
            <mxPoint x="30" y="5" as="sourcePoint" />
            <mxPoint x="45" y="20" as="targetPoint" />
            <Array as="points">
              <mxPoint x="30" y="20" />
            </Array>
          </mxGeometry>
        </mxCell>
        <mxCell id="tuzMwipLeWRuzpTrGQp2-28" value="" style="endArrow=open;html=1;edgeStyle=orthogonalEdgeStyle;rounded=0;endFill=0;startSize=6;endSize=2;strokeColor=#FFFFFF;fontFamily=Manrope;fontSource=https%3A%2F%2Ffonts.googleapis.com%2Fcss%3Ffamily%3DManrope;" parent="tuzMwipLeWRuzpTrGQp2-23" edge="1">
          <mxGeometry width="83.33333333333334" height="83.33333333333334" as="geometry">
            <mxPoint x="45" y="31.666666666666668" as="sourcePoint" />
            <mxPoint x="30" y="45" as="targetPoint" />
            <Array as="points">
              <mxPoint x="30" y="31.666666666666668" />
            </Array>
          </mxGeometry>
        </mxCell>
        <mxCell id="tuzMwipLeWRuzpTrGQp2-29" value="11" style="ellipse;whiteSpace=wrap;html=1;aspect=fixed;fontColor=#FFFFFF;fontSize=8;strokeColor=#98A2AE;fontFamily=Manrope;fontSource=https://fonts.googleapis.com/css?family=Manrope;fillColor=#BEC8D2;strokeWidth=1;" parent="tuzMwipLeWRuzpTrGQp2-23" vertex="1">
          <mxGeometry x="5" y="50" width="10" height="10" as="geometry" />
        </mxCell>
        <mxCell id="tuzMwipLeWRuzpTrGQp2-30" value="12" style="ellipse;whiteSpace=wrap;html=1;aspect=fixed;fontColor=#FFFFFF;fontSize=8;strokeColor=#98A2AE;fontFamily=Manrope;fontSource=https://fonts.googleapis.com/css?family=Manrope;fillColor=#BEC8D2;strokeWidth=1;" parent="tuzMwipLeWRuzpTrGQp2-23" vertex="1">
          <mxGeometry x="15" y="50" width="10" height="10" as="geometry" />
        </mxCell>
        <mxCell id="tuzMwipLeWRuzpTrGQp2-31" value="13" style="ellipse;whiteSpace=wrap;html=1;aspect=fixed;fontColor=#FFFFFF;fontSize=8;strokeColor=#98A2AE;fontFamily=Manrope;fontSource=https://fonts.googleapis.com/css?family=Manrope;fillColor=#BEC8D2;strokeWidth=1;" parent="tuzMwipLeWRuzpTrGQp2-23" vertex="1">
          <mxGeometry x="25" y="50" width="10" height="10" as="geometry" />
        </mxCell>
        <mxCell id="tuzMwipLeWRuzpTrGQp2-32" value="14" style="ellipse;whiteSpace=wrap;html=1;aspect=fixed;fontColor=#FFFFFF;fontSize=8;strokeColor=#98A2AE;fontFamily=Manrope;fontSource=https://fonts.googleapis.com/css?family=Manrope;fillColor=#BEC8D2;strokeWidth=1;" parent="tuzMwipLeWRuzpTrGQp2-23" vertex="1">
          <mxGeometry x="35" y="50" width="10" height="10" as="geometry" />
        </mxCell>
        <mxCell id="tuzMwipLeWRuzpTrGQp2-34" style="rounded=0;orthogonalLoop=1;jettySize=auto;html=1;fontFamily=Manrope;fontSize=12;fontColor=#FFFFFF;endArrow=none;endFill=0;startArrow=none;startFill=0;entryX=0.5;entryY=0;entryDx=0;entryDy=0;strokeColor=#98A2AE;endSize=6;startSize=6;exitX=0;exitY=1;exitDx=0;exitDy=0;" parent="tuzMwipLeWRuzpTrGQp2-1" source="tuzMwipLeWRuzpTrGQp2-29" target="tuzMwipLeWRuzpTrGQp2-9" edge="1">
          <mxGeometry relative="1" as="geometry">
            <mxPoint x="222.5" y="368" as="sourcePoint" />
            <mxPoint x="167.885" y="400" as="targetPoint" />
          </mxGeometry>
        </mxCell>
        <mxCell id="tuzMwipLeWRuzpTrGQp2-35" value="" style="group" parent="tuzMwipLeWRuzpTrGQp2-1" vertex="1" connectable="0">
          <mxGeometry x="438" y="311" width="50" height="50" as="geometry" />
        </mxCell>
        <mxCell id="tuzMwipLeWRuzpTrGQp2-36" value="" style="whiteSpace=wrap;html=1;aspect=fixed;fillColor=#001135;strokeColor=none;connectable=1;allowArrows=1;fontFamily=Manrope;fontSource=https%3A%2F%2Ffonts.googleapis.com%2Fcss%3Ffamily%3DManrope;" parent="tuzMwipLeWRuzpTrGQp2-35" vertex="1">
          <mxGeometry width="50" height="50" as="geometry" />
        </mxCell>
        <mxCell id="tuzMwipLeWRuzpTrGQp2-37" value="" style="endArrow=open;html=1;edgeStyle=orthogonalEdgeStyle;rounded=0;endFill=0;startSize=6;endSize=2;strokeColor=#FFFFFF;fontFamily=Manrope;fontSource=https%3A%2F%2Ffonts.googleapis.com%2Fcss%3Ffamily%3DManrope;" parent="tuzMwipLeWRuzpTrGQp2-35" edge="1">
          <mxGeometry width="83.33333333333334" height="83.33333333333334" as="geometry">
            <mxPoint x="5" y="20" as="sourcePoint" />
            <mxPoint x="18.333333333333336" y="5" as="targetPoint" />
            <Array as="points">
              <mxPoint x="18.333333333333336" y="20" />
            </Array>
          </mxGeometry>
        </mxCell>
        <mxCell id="tuzMwipLeWRuzpTrGQp2-38" value="" style="endArrow=open;html=1;edgeStyle=orthogonalEdgeStyle;rounded=0;endFill=0;startSize=6;endSize=2;strokeColor=#FFFFFF;fontFamily=Manrope;fontSource=https%3A%2F%2Ffonts.googleapis.com%2Fcss%3Ffamily%3DManrope;" parent="tuzMwipLeWRuzpTrGQp2-35" edge="1">
          <mxGeometry width="83.33333333333334" height="83.33333333333334" as="geometry">
            <mxPoint x="18.333333333333336" y="45" as="sourcePoint" />
            <mxPoint x="5" y="31.666666666666668" as="targetPoint" />
            <Array as="points">
              <mxPoint x="18.333333333333336" y="31.666666666666668" />
            </Array>
          </mxGeometry>
        </mxCell>
        <mxCell id="tuzMwipLeWRuzpTrGQp2-39" value="" style="endArrow=open;html=1;edgeStyle=orthogonalEdgeStyle;rounded=0;endFill=0;startSize=6;endSize=2;strokeColor=#FFFFFF;fontFamily=Manrope;fontSource=https%3A%2F%2Ffonts.googleapis.com%2Fcss%3Ffamily%3DManrope;" parent="tuzMwipLeWRuzpTrGQp2-35" edge="1">
          <mxGeometry width="83.33333333333334" height="83.33333333333334" as="geometry">
            <mxPoint x="30" y="5" as="sourcePoint" />
            <mxPoint x="45" y="20" as="targetPoint" />
            <Array as="points">
              <mxPoint x="30" y="20" />
            </Array>
          </mxGeometry>
        </mxCell>
        <mxCell id="tuzMwipLeWRuzpTrGQp2-40" value="" style="endArrow=open;html=1;edgeStyle=orthogonalEdgeStyle;rounded=0;endFill=0;startSize=6;endSize=2;strokeColor=#FFFFFF;fontFamily=Manrope;fontSource=https%3A%2F%2Ffonts.googleapis.com%2Fcss%3Ffamily%3DManrope;" parent="tuzMwipLeWRuzpTrGQp2-35" edge="1">
          <mxGeometry width="83.33333333333334" height="83.33333333333334" as="geometry">
            <mxPoint x="45" y="31.666666666666668" as="sourcePoint" />
            <mxPoint x="30" y="45" as="targetPoint" />
            <Array as="points">
              <mxPoint x="30" y="31.666666666666668" />
            </Array>
          </mxGeometry>
        </mxCell>
        <mxCell id="tuzMwipLeWRuzpTrGQp2-41" value="&lt;font&gt;spine2&lt;/font&gt;" style="text;html=1;align=center;verticalAlign=middle;resizable=0;points=[];autosize=1;fontSize=14;fontFamily=Manrope;fontStyle=0;fontColor=#FFFFFF;" parent="tuzMwipLeWRuzpTrGQp2-1" vertex="1">
          <mxGeometry x="488" y="326" width="60" height="20" as="geometry" />
        </mxCell>
        <mxCell id="tuzMwipLeWRuzpTrGQp2-42" style="rounded=0;orthogonalLoop=1;jettySize=auto;html=1;fontFamily=Manrope;fontSize=12;fontColor=#FFFFFF;endArrow=none;endFill=0;startArrow=none;startFill=0;entryX=1;entryY=0;entryDx=0;entryDy=0;strokeColor=#98A2AE;endSize=6;startSize=6;exitX=0;exitY=1;exitDx=0;exitDy=0;" parent="tuzMwipLeWRuzpTrGQp2-1" source="tuzMwipLeWRuzpTrGQp2-123" target="tuzMwipLeWRuzpTrGQp2-10" edge="1">
          <mxGeometry relative="1" as="geometry">
            <mxPoint x="463" y="361" as="sourcePoint" />
            <mxPoint x="169" y="413" as="targetPoint" />
          </mxGeometry>
        </mxCell>
        <mxCell id="tuzMwipLeWRuzpTrGQp2-44" value="" style="group" parent="tuzMwipLeWRuzpTrGQp2-1" vertex="1" connectable="0">
          <mxGeometry x="461" y="416" width="50" height="50" as="geometry" />
        </mxCell>
        <mxCell id="tuzMwipLeWRuzpTrGQp2-45" value="" style="group" parent="tuzMwipLeWRuzpTrGQp2-44" vertex="1" connectable="0">
          <mxGeometry width="50" height="50" as="geometry" />
        </mxCell>
        <mxCell id="tuzMwipLeWRuzpTrGQp2-46" value="" style="whiteSpace=wrap;html=1;aspect=fixed;fillColor=#001135;strokeColor=none;connectable=1;allowArrows=1;fontFamily=Manrope;fontSource=https%3A%2F%2Ffonts.googleapis.com%2Fcss%3Ffamily%3DManrope;" parent="tuzMwipLeWRuzpTrGQp2-45" vertex="1">
          <mxGeometry width="50" height="50" as="geometry" />
        </mxCell>
        <mxCell id="tuzMwipLeWRuzpTrGQp2-47" value="" style="endArrow=open;html=1;edgeStyle=orthogonalEdgeStyle;rounded=0;endFill=0;startSize=6;endSize=2;strokeColor=#FFFFFF;fontFamily=Manrope;fontSource=https%3A%2F%2Ffonts.googleapis.com%2Fcss%3Ffamily%3DManrope;" parent="tuzMwipLeWRuzpTrGQp2-45" edge="1">
          <mxGeometry width="83.33333333333334" height="83.33333333333334" as="geometry">
            <mxPoint x="5" y="20" as="sourcePoint" />
            <mxPoint x="18.333333333333336" y="5" as="targetPoint" />
            <Array as="points">
              <mxPoint x="18.333333333333336" y="20" />
            </Array>
          </mxGeometry>
        </mxCell>
        <mxCell id="tuzMwipLeWRuzpTrGQp2-48" value="" style="endArrow=open;html=1;edgeStyle=orthogonalEdgeStyle;rounded=0;endFill=0;startSize=6;endSize=2;strokeColor=#FFFFFF;fontFamily=Manrope;fontSource=https%3A%2F%2Ffonts.googleapis.com%2Fcss%3Ffamily%3DManrope;" parent="tuzMwipLeWRuzpTrGQp2-45" edge="1">
          <mxGeometry width="83.33333333333334" height="83.33333333333334" as="geometry">
            <mxPoint x="18.333333333333336" y="45" as="sourcePoint" />
            <mxPoint x="5" y="31.666666666666668" as="targetPoint" />
            <Array as="points">
              <mxPoint x="18.333333333333336" y="31.666666666666668" />
            </Array>
          </mxGeometry>
        </mxCell>
        <mxCell id="tuzMwipLeWRuzpTrGQp2-49" value="" style="endArrow=open;html=1;edgeStyle=orthogonalEdgeStyle;rounded=0;endFill=0;startSize=6;endSize=2;strokeColor=#FFFFFF;fontFamily=Manrope;fontSource=https%3A%2F%2Ffonts.googleapis.com%2Fcss%3Ffamily%3DManrope;" parent="tuzMwipLeWRuzpTrGQp2-45" edge="1">
          <mxGeometry width="83.33333333333334" height="83.33333333333334" as="geometry">
            <mxPoint x="30" y="5" as="sourcePoint" />
            <mxPoint x="45" y="20" as="targetPoint" />
            <Array as="points">
              <mxPoint x="30" y="20" />
            </Array>
          </mxGeometry>
        </mxCell>
        <mxCell id="tuzMwipLeWRuzpTrGQp2-50" value="" style="endArrow=open;html=1;edgeStyle=orthogonalEdgeStyle;rounded=0;endFill=0;startSize=6;endSize=2;strokeColor=#FFFFFF;fontFamily=Manrope;fontSource=https%3A%2F%2Ffonts.googleapis.com%2Fcss%3Ffamily%3DManrope;" parent="tuzMwipLeWRuzpTrGQp2-45" edge="1">
          <mxGeometry width="83.33333333333334" height="83.33333333333334" as="geometry">
            <mxPoint x="45" y="31.666666666666668" as="sourcePoint" />
            <mxPoint x="30" y="45" as="targetPoint" />
            <Array as="points">
              <mxPoint x="30" y="31.666666666666668" />
            </Array>
          </mxGeometry>
        </mxCell>
        <mxCell id="tuzMwipLeWRuzpTrGQp2-51" value="&lt;font&gt;leaf3&lt;/font&gt;" style="text;html=1;align=center;verticalAlign=middle;resizable=0;points=[];autosize=1;fontSize=14;fontFamily=Manrope;fontStyle=0;fontColor=#FFFFFF;" parent="tuzMwipLeWRuzpTrGQp2-1" vertex="1">
          <mxGeometry x="417" y="426.87" width="43" height="22" as="geometry" />
        </mxCell>
        <mxCell id="tuzMwipLeWRuzpTrGQp2-52" value="" style="group" parent="tuzMwipLeWRuzpTrGQp2-1" vertex="1" connectable="0">
          <mxGeometry x="559" y="416" width="50" height="50" as="geometry" />
        </mxCell>
        <mxCell id="tuzMwipLeWRuzpTrGQp2-53" value="" style="group" parent="tuzMwipLeWRuzpTrGQp2-52" vertex="1" connectable="0">
          <mxGeometry width="50" height="50" as="geometry" />
        </mxCell>
        <mxCell id="tuzMwipLeWRuzpTrGQp2-59" value="51" style="ellipse;whiteSpace=wrap;html=1;aspect=fixed;fontColor=#FFFFFF;fontSize=8;strokeColor=#98A2AE;fontFamily=Manrope;fontSource=https://fonts.googleapis.com/css?family=Manrope;fillColor=#BEC8D2;strokeWidth=1;" parent="tuzMwipLeWRuzpTrGQp2-53" vertex="1">
          <mxGeometry x="15" y="-10" width="10" height="10" as="geometry" />
        </mxCell>
        <mxCell id="tuzMwipLeWRuzpTrGQp2-60" value="52" style="ellipse;whiteSpace=wrap;html=1;aspect=fixed;fontColor=#FFFFFF;fontSize=8;strokeColor=#98A2AE;fontFamily=Manrope;fontSource=https://fonts.googleapis.com/css?family=Manrope;fillColor=#BEC8D2;strokeWidth=1;" parent="tuzMwipLeWRuzpTrGQp2-53" vertex="1">
          <mxGeometry x="25" y="-10" width="10" height="10" as="geometry" />
        </mxCell>
        <mxCell id="tuzMwipLeWRuzpTrGQp2-54" value="" style="whiteSpace=wrap;html=1;aspect=fixed;fillColor=#001135;strokeColor=none;connectable=1;allowArrows=1;fontFamily=Manrope;fontSource=https%3A%2F%2Ffonts.googleapis.com%2Fcss%3Ffamily%3DManrope;" parent="tuzMwipLeWRuzpTrGQp2-53" vertex="1">
          <mxGeometry width="50" height="50" as="geometry" />
        </mxCell>
        <mxCell id="tuzMwipLeWRuzpTrGQp2-55" value="" style="endArrow=open;html=1;edgeStyle=orthogonalEdgeStyle;rounded=0;endFill=0;startSize=6;endSize=2;strokeColor=#FFFFFF;fontFamily=Manrope;fontSource=https%3A%2F%2Ffonts.googleapis.com%2Fcss%3Ffamily%3DManrope;" parent="tuzMwipLeWRuzpTrGQp2-53" edge="1">
          <mxGeometry width="83.33333333333334" height="83.33333333333334" as="geometry">
            <mxPoint x="5" y="20" as="sourcePoint" />
            <mxPoint x="18.333333333333336" y="5" as="targetPoint" />
            <Array as="points">
              <mxPoint x="18.333333333333336" y="20" />
            </Array>
          </mxGeometry>
        </mxCell>
        <mxCell id="tuzMwipLeWRuzpTrGQp2-56" value="" style="endArrow=open;html=1;edgeStyle=orthogonalEdgeStyle;rounded=0;endFill=0;startSize=6;endSize=2;strokeColor=#FFFFFF;fontFamily=Manrope;fontSource=https%3A%2F%2Ffonts.googleapis.com%2Fcss%3Ffamily%3DManrope;" parent="tuzMwipLeWRuzpTrGQp2-53" edge="1">
          <mxGeometry width="83.33333333333334" height="83.33333333333334" as="geometry">
            <mxPoint x="18.333333333333336" y="45" as="sourcePoint" />
            <mxPoint x="5" y="31.666666666666668" as="targetPoint" />
            <Array as="points">
              <mxPoint x="18.333333333333336" y="31.666666666666668" />
            </Array>
          </mxGeometry>
        </mxCell>
        <mxCell id="tuzMwipLeWRuzpTrGQp2-57" value="" style="endArrow=open;html=1;edgeStyle=orthogonalEdgeStyle;rounded=0;endFill=0;startSize=6;endSize=2;strokeColor=#FFFFFF;fontFamily=Manrope;fontSource=https%3A%2F%2Ffonts.googleapis.com%2Fcss%3Ffamily%3DManrope;" parent="tuzMwipLeWRuzpTrGQp2-53" edge="1">
          <mxGeometry width="83.33333333333334" height="83.33333333333334" as="geometry">
            <mxPoint x="30" y="5" as="sourcePoint" />
            <mxPoint x="45" y="20" as="targetPoint" />
            <Array as="points">
              <mxPoint x="30" y="20" />
            </Array>
          </mxGeometry>
        </mxCell>
        <mxCell id="tuzMwipLeWRuzpTrGQp2-58" value="" style="endArrow=open;html=1;edgeStyle=orthogonalEdgeStyle;rounded=0;endFill=0;startSize=6;endSize=2;strokeColor=#FFFFFF;fontFamily=Manrope;fontSource=https%3A%2F%2Ffonts.googleapis.com%2Fcss%3Ffamily%3DManrope;" parent="tuzMwipLeWRuzpTrGQp2-53" edge="1">
          <mxGeometry width="83.33333333333334" height="83.33333333333334" as="geometry">
            <mxPoint x="45" y="31.666666666666668" as="sourcePoint" />
            <mxPoint x="30" y="45" as="targetPoint" />
            <Array as="points">
              <mxPoint x="30" y="31.666666666666668" />
            </Array>
          </mxGeometry>
        </mxCell>
        <mxCell id="HZyWptrRybt8TGg7zKzo-13" value="&lt;div style=&quot;font-size: 10px;&quot;&gt;&lt;font style=&quot;font-size: 10px;&quot;&gt;MAC-VRF&lt;/font&gt;&lt;/div&gt;" style="rounded=1;whiteSpace=wrap;html=1;fontFamily=Manrope;fontSource=https%3A%2F%2Ffonts.googleapis.com%2Fcss%3Ffamily%3DManrope;fontSize=10;fontColor=#FFFFFF;spacing=0;arcSize=50;fillColor=#576649;strokeColor=none;align=center;verticalAlign=middle;labelPosition=center;verticalLabelPosition=middle;horizontal=1;" vertex="1" parent="tuzMwipLeWRuzpTrGQp2-53">
          <mxGeometry y="-18" width="50" height="18" as="geometry" />
        </mxCell>
        <mxCell id="tuzMwipLeWRuzpTrGQp2-62" style="rounded=0;orthogonalLoop=1;jettySize=auto;html=1;fontFamily=Manrope;fontSize=12;fontColor=#FFFFFF;endArrow=none;endFill=0;startArrow=none;startFill=0;entryX=0;entryY=0;entryDx=0;entryDy=0;strokeColor=#98A2AE;endSize=6;startSize=6;exitX=0.5;exitY=1;exitDx=0;exitDy=0;" parent="tuzMwipLeWRuzpTrGQp2-1" source="tuzMwipLeWRuzpTrGQp2-31" target="tuzMwipLeWRuzpTrGQp2-121" edge="1">
          <mxGeometry relative="1" as="geometry">
            <mxPoint x="515.5" y="367" as="sourcePoint" />
            <mxPoint x="488.885" y="398" as="targetPoint" />
          </mxGeometry>
        </mxCell>
        <mxCell id="tuzMwipLeWRuzpTrGQp2-63" style="rounded=0;orthogonalLoop=1;jettySize=auto;html=1;fontFamily=Manrope;fontSize=12;fontColor=#FFFFFF;endArrow=none;endFill=0;startArrow=none;startFill=0;entryX=0.5;entryY=0;entryDx=0;entryDy=0;strokeColor=#98A2AE;endSize=6;startSize=6;exitX=0.5;exitY=1;exitDx=0;exitDy=0;" parent="tuzMwipLeWRuzpTrGQp2-1" source="tuzMwipLeWRuzpTrGQp2-125" target="tuzMwipLeWRuzpTrGQp2-122" edge="1">
          <mxGeometry relative="1" as="geometry">
            <mxPoint x="615.5" y="367" as="sourcePoint" />
            <mxPoint x="490" y="411" as="targetPoint" />
          </mxGeometry>
        </mxCell>
        <mxCell id="tuzMwipLeWRuzpTrGQp2-65" value="" style="group" parent="tuzMwipLeWRuzpTrGQp2-1" vertex="1" connectable="0">
          <mxGeometry x="338" y="208" width="50" height="105" as="geometry" />
        </mxCell>
        <mxCell id="tuzMwipLeWRuzpTrGQp2-71" value="31" style="ellipse;whiteSpace=wrap;html=1;aspect=fixed;fontColor=#FFFFFF;fontSize=8;strokeColor=#98A2AE;fontFamily=Manrope;fontSource=https://fonts.googleapis.com/css?family=Manrope;fillColor=#BEC8D2;strokeWidth=1;" parent="tuzMwipLeWRuzpTrGQp2-65" vertex="1">
          <mxGeometry x="15" y="93" width="10" height="10" as="geometry" />
        </mxCell>
        <mxCell id="tuzMwipLeWRuzpTrGQp2-72" value="32" style="ellipse;whiteSpace=wrap;html=1;aspect=fixed;fontColor=#FFFFFF;fontSize=8;strokeColor=#98A2AE;fontFamily=Manrope;fontSource=https://fonts.googleapis.com/css?family=Manrope;fillColor=#BEC8D2;strokeWidth=1;" parent="tuzMwipLeWRuzpTrGQp2-65" vertex="1">
          <mxGeometry x="25" y="93" width="10" height="10" as="geometry" />
        </mxCell>
        <mxCell id="HZyWptrRybt8TGg7zKzo-16" value="&lt;div style=&quot;font-size: 10px;&quot;&gt;&lt;font style=&quot;font-size: 10px;&quot;&gt;R-VPLS&lt;/font&gt;&lt;/div&gt;" style="rounded=1;whiteSpace=wrap;html=1;fontFamily=Manrope;fontSource=https%3A%2F%2Ffonts.googleapis.com%2Fcss%3Ffamily%3DManrope;fontSize=10;fontColor=#FFFFFF;spacing=0;arcSize=50;fillColor=#576649;strokeColor=none;align=center;verticalAlign=middle;labelPosition=center;verticalLabelPosition=middle;horizontal=1;" vertex="1" parent="tuzMwipLeWRuzpTrGQp2-65">
          <mxGeometry y="11" width="50" height="18" as="geometry" />
        </mxCell>
        <mxCell id="tuzMwipLeWRuzpTrGQp2-85" style="rounded=0;orthogonalLoop=1;jettySize=auto;html=1;fontFamily=Manrope;fontSize=12;fontColor=#FFFFFF;endArrow=none;endFill=0;startArrow=none;startFill=0;entryX=0.5;entryY=0;entryDx=0;entryDy=0;strokeColor=#98A2AE;endSize=6;startSize=6;exitX=0.5;exitY=1;exitDx=0;exitDy=0;" parent="tuzMwipLeWRuzpTrGQp2-1" source="tuzMwipLeWRuzpTrGQp2-120" target="tuzMwipLeWRuzpTrGQp2-118" edge="1">
          <mxGeometry relative="1" as="geometry">
            <mxPoint x="348.5" y="260" as="sourcePoint" />
            <mxPoint x="212" y="318" as="targetPoint" />
          </mxGeometry>
        </mxCell>
        <mxCell id="tuzMwipLeWRuzpTrGQp2-86" style="rounded=0;orthogonalLoop=1;jettySize=auto;html=1;fontFamily=Manrope;fontSize=12;fontColor=#FFFFFF;endArrow=none;endFill=0;startArrow=none;startFill=0;strokeColor=#98A2AE;endSize=2;startSize=6;exitX=0;exitY=1;exitDx=0;exitDy=0;entryX=1;entryY=0;entryDx=0;entryDy=0;" parent="tuzMwipLeWRuzpTrGQp2-1" source="tuzMwipLeWRuzpTrGQp2-119" target="tuzMwipLeWRuzpTrGQp2-72" edge="1">
          <mxGeometry relative="1" as="geometry">
            <mxPoint x="415" y="268" as="sourcePoint" />
            <mxPoint x="363" y="311" as="targetPoint" />
          </mxGeometry>
        </mxCell>
        <mxCell id="tuzMwipLeWRuzpTrGQp2-88" value="&lt;font&gt;leaf2&lt;/font&gt;" style="text;html=1;align=center;verticalAlign=middle;resizable=0;points=[];autosize=1;fontSize=14;fontFamily=Manrope;fontStyle=0;fontColor=#FFFFFF;" parent="tuzMwipLeWRuzpTrGQp2-1" vertex="1">
          <mxGeometry x="358" y="426.87" width="43" height="22" as="geometry" />
        </mxCell>
        <mxCell id="tuzMwipLeWRuzpTrGQp2-89" value="&lt;font&gt;leaf4&lt;/font&gt;" style="text;html=1;align=center;verticalAlign=middle;resizable=0;points=[];autosize=1;fontSize=14;fontFamily=Manrope;fontStyle=0;fontColor=#FFFFFF;" parent="tuzMwipLeWRuzpTrGQp2-1" vertex="1">
          <mxGeometry x="608" y="426.87" width="43" height="22" as="geometry" />
        </mxCell>
        <mxCell id="tuzMwipLeWRuzpTrGQp2-90" value="&lt;font&gt;leaf1&lt;br&gt;&lt;/font&gt;" style="text;html=1;align=center;verticalAlign=middle;resizable=0;points=[];autosize=1;fontSize=14;fontFamily=Manrope;fontStyle=0;fontColor=#FFFFFF;" parent="tuzMwipLeWRuzpTrGQp2-1" vertex="1">
          <mxGeometry x="164" y="431" width="40" height="22" as="geometry" />
        </mxCell>
        <mxCell id="tuzMwipLeWRuzpTrGQp2-97" value="" style="group" parent="tuzMwipLeWRuzpTrGQp2-1" vertex="1" connectable="0">
          <mxGeometry x="508" y="509.99999999999994" width="56" height="54.99999999999994" as="geometry" />
        </mxCell>
        <mxCell id="tuzMwipLeWRuzpTrGQp2-98" value="client2" style="text;html=1;align=center;verticalAlign=middle;resizable=0;points=[];autosize=1;fontSize=12;fontFamily=Manrope;rotation=0;fontSource=https%3A%2F%2Ffonts.googleapis.com%2Fcss%3Ffamily%3DManrope;fontColor=#FFFFFF;fontStyle=0" parent="tuzMwipLeWRuzpTrGQp2-97" vertex="1">
          <mxGeometry x="-1" y="27.999999999999943" width="57" height="27" as="geometry" />
        </mxCell>
        <mxCell id="tuzMwipLeWRuzpTrGQp2-99" value="" style="group" parent="tuzMwipLeWRuzpTrGQp2-97" vertex="1" connectable="0">
          <mxGeometry width="53.83333333333334" height="36.64000000000006" as="geometry" />
        </mxCell>
        <mxCell id="tuzMwipLeWRuzpTrGQp2-100" value="" style="rounded=1;whiteSpace=wrap;html=1;strokeColor=none;arcSize=4;" parent="tuzMwipLeWRuzpTrGQp2-99" vertex="1">
          <mxGeometry x="6" y="2" width="41" height="24" as="geometry" />
        </mxCell>
        <mxCell id="tuzMwipLeWRuzpTrGQp2-101" value="" style="shape=image;editableCssRules=\.color;verticalLabelPosition=bottom;labelBackgroundColor=#ffffff;verticalAlign=top;aspect=fixed;imageAspect=0;image=data:image/svg+xml,PHN2ZyB4bWxucz0iaHR0cDovL3d3dy53My5vcmcvMjAwMC9zdmciIHhtbG5zOnhsaW5rPSJodHRwOi8vd3d3LnczLm9yZy8xOTk5L3hsaW5rIiB2aWV3Qm94PSIwIDAgMTMxIDgxIiBmaWxsPSIjZmZmIiBmaWxsLXJ1bGU9ImV2ZW5vZGQiIHN0cm9rZT0iIzAwMCIgc3Ryb2tlLWxpbmVjYXA9InJvdW5kIiBzdHJva2UtbGluZWpvaW49InJvdW5kIj48dXNlIHhsaW5rOmhyZWY9IiNBIiB4PSIuNSIgeT0iLjUiLz48c3ltYm9sIGlkPSJBIiBvdmVyZmxvdz0idmlzaWJsZSI+PHBhdGggY2xhc3M9ImNvbG9yIiBkPSJNMTE5LjA3OCA2Mi43MDNWNy4yNzVjMC0yLjc0Ni0yLjU0LTcuMjc1LTUuNTgtNy4yNzVIMTYuNDc1Yy0zLjA0IDAtNi4wOCA0LjUzLTYuMDggNy4yNzV2NTUuNDI3Qy0uNDk4IDc0LjI0NC4wMDQgNzQuMjQ0LjAwNCA3NC4yNDQuMDA0IDc3LjUxNiAzLjA0NCA4MCA2Ljg1MiA4MGgxMTYuM2MzLjgwOCAwIDYuODQ4LTIuNzQ3IDYuODQ4LTUuNzU2bC0xMC45MjItMTEuNTR6TTczLjk3NSA3NS4yMzdoLTIwLjI4Yy0xLjAwNCAwLTIuMDM3LS40OTctMi4wMzctLjk5M2wyLjI3My0zLjc3YzAtLjQ5Ny43NjctLjc2IDEuNzctLjc2SDcxLjkxYy43NjcgMCAxLjUzNS4yNjMgMS41MzUuNzZsMi41NCAzLjc3Yy4wMy43My0xLjAwNC45OTMtMi4wMDcuOTkzaDB6bTQwLjI5Mi0xMi43OThIMTUuMjA1VjcuNzcyYzAtMS4yNTYgMS4yNy0zLjAxIDIuNzc1LTMuMDFoOTMuNzVjMS41MzUgMCAyLjU0IDEuNzUzIDIuNTQgM1Y2Mi40NHoiIGZpbGw9IiMyYTMyODIiIHN0cm9rZT0ibm9uZSIvPjwvc3ltYm9sPjxzdHlsZSB0eXBlPSJ0ZXh0L2NzcyI+LmNvbG9yIHsgZmlsbDogcmdiKDAsIDE3LCA1Myk7IH0gPC9zdHlsZT48L3N2Zz4=;" parent="tuzMwipLeWRuzpTrGQp2-99" vertex="1">
          <mxGeometry width="53.833333333333336" height="33.28625954198473" as="geometry" />
        </mxCell>
        <mxCell id="tuzMwipLeWRuzpTrGQp2-102" value="" style="shape=image;verticalLabelPosition=bottom;labelBackgroundColor=#ffffff;verticalAlign=top;aspect=fixed;imageAspect=0;image=data:image/svg+xml,PHN2ZyB4bWxucz0iaHR0cDovL3d3dy53My5vcmcvMjAwMC9zdmciIHhtbG5zOnhsaW5rPSJodHRwOi8vd3d3LnczLm9yZy8xOTk5L3hsaW5rIiB2aWV3Qm94PSIwIDAgNjUgNTciIGZpbGw9IiNmZmYiIGZpbGwtcnVsZT0iZXZlbm9kZCIgc3Ryb2tlPSIjMDAwIiBzdHJva2UtbGluZWNhcD0icm91bmQiIHN0cm9rZS1saW5lam9pbj0icm91bmQiPjx1c2UgeGxpbms6aHJlZj0iI0EiIHg9Ii41IiB5PSIuNSIvPjxzeW1ib2wgaWQ9IkEiIG92ZXJmbG93PSJ2aXNpYmxlIj48ZyBzdHJva2U9Im5vbmUiIGZpbGw9IiMwZDU5N2YiIGZpbGwtcnVsZT0ibm9uemVybyI+PHBhdGggZD0iTTIzLjI1MiAzNC41Mjd2LTYuNzQ1bC00Ljg1NSA0Ljg2NGMuNDc0LjMzMy45NjguNjM1IDEuNDguOTA2LjQ2My4yNDMuODcuNDM0IDEuMzAzLjU4YTcuOTcgNy45NyAwIDAgMCAxLjEzLjMwNGMuMzQ4LjA2NC42Ni4wOTMuOTUuMDk2bTI0LjgyMi0uNTYyYTEuMTcgMS4xNyAwIDAgMCAuMTQyLjFjLjEyMy4wNzguMjUyLjE0NS4zODUuMjAzYTIuOTMgMi45MyAwIDAgMCAuNjM3LjE5NGMuMjk2LjA2LjU5OC4wODguOS4wODdhNS44NCA1Ljg0IDAgMCAwIC45NTUtLjA4NyA3LjI0IDcuMjQgMCAwIDAgMS4xMzgtLjMwMWMuNDUzLS4xNi44OTUtLjM1NCAxLjMyLS41OC41Mi0uMjc0IDEuMDItLjU4IDEuNTAzLS45MThsLTMuNjg1LTMuNi0xMi4yLTEyLjI1OC01LjM1NiA1LjM1Ni03LjIzLTcuNDU1TDguNDQgMzIuNjQ3Yy40OC4zMzcuOTguNjQ0IDEuNS45MTguNDcuMjQ2LjkuNDM0IDEuMzE3LjU4YTcuMTggNy4xOCAwIDAgMCAxLjEzNS4zMDEgNS41MyA1LjUzIDAgMCAwIC45NTUuMDg3IDQuNTMgNC41MyAwIDAgMCAuOS0uMDg3IDMuMjkgMy4yOSAwIDAgMCAuNjM3LS4xOTRjLjEzNC0uMDU0LjI2My0uMTIuMzg1LS4xOTdsLjE0NS0uMTA0IDguMTkzLTguMTkzIDIuOTI0LTIuODA4IDguMTA2IDguMTA2IDIuODM3IDIuOTEyYy4wNDYuMDM3LjA5NC4wNy4xNDUuMS4xMjIuMDc4LjI1LjE0NS4zODUuMmEzLjQ5IDMuNDkgMCAwIDAgLjYzNy4xOTRjLjI1NS4wNTIuNTU2LjA4Ny45MDMuMDg3YTUuODQgNS44NCAwIDAgMCAuOTU1LS4wODdjLjM4Ny0uMDY4Ljc2OC0uMTY4IDEuMTM4LS4zYTkuOTQgOS45NCAwIDAgMCAxLjMyLS41NzljLjUyLS4yNzQgMS4wMi0uNTggMS41MDMtLjkxOGwtNi41MDgtNi4zNyAxLjItMS4yIDUuNjMgNS42MyAzLjI4MyAzLjI1NE00Ny45OTYuMDJsMTUuOTk4IDI3LjcxNC0xNS45OSAyNy42OTRIMTUuOTk4TDAgMjcuNzE0IDE1Ljk5OCAweiIvPjxwYXRoIGQ9Ik0zOC4wMjIgMjYuMzY3TDMzLjc2IDIyLjExbC4zMDQtLjMwNCA0LjMgNC4yNDR6Ii8+PC9nPjwvc3ltYm9sPjwvc3ZnPg==;fontColor=#001135;" parent="tuzMwipLeWRuzpTrGQp2-99" vertex="1">
          <mxGeometry x="17.080534351145033" y="5.876543209876559" width="19.679987277353693" height="17.259541984732824" as="geometry" />
        </mxCell>
        <mxCell id="tuzMwipLeWRuzpTrGQp2-103" value="" style="group" parent="tuzMwipLeWRuzpTrGQp2-1" vertex="1" connectable="0">
          <mxGeometry x="260" y="509.99999999999994" width="53.83333333333337" height="50.99999999999994" as="geometry" />
        </mxCell>
        <mxCell id="tuzMwipLeWRuzpTrGQp2-104" value="client1" style="text;html=1;align=center;verticalAlign=middle;resizable=0;points=[];autosize=1;fontSize=12;fontFamily=Manrope;rotation=0;fontSource=https%3A%2F%2Ffonts.googleapis.com%2Fcss%3Ffamily%3DManrope;fontStyle=0;fontColor=#FFFFFF;" parent="tuzMwipLeWRuzpTrGQp2-103" vertex="1">
          <mxGeometry x="2" y="30.999999999999943" width="50" height="20" as="geometry" />
        </mxCell>
        <mxCell id="tuzMwipLeWRuzpTrGQp2-105" value="" style="group" parent="tuzMwipLeWRuzpTrGQp2-103" vertex="1" connectable="0">
          <mxGeometry width="53.83333333333334" height="36.64000000000006" as="geometry" />
        </mxCell>
        <mxCell id="tuzMwipLeWRuzpTrGQp2-106" value="" style="rounded=1;whiteSpace=wrap;html=1;strokeColor=none;arcSize=4;" parent="tuzMwipLeWRuzpTrGQp2-105" vertex="1">
          <mxGeometry x="6" y="2" width="41" height="24" as="geometry" />
        </mxCell>
        <mxCell id="tuzMwipLeWRuzpTrGQp2-107" value="" style="shape=image;editableCssRules=\.color;verticalLabelPosition=bottom;labelBackgroundColor=#ffffff;verticalAlign=top;aspect=fixed;imageAspect=0;image=data:image/svg+xml,PHN2ZyB4bWxucz0iaHR0cDovL3d3dy53My5vcmcvMjAwMC9zdmciIHhtbG5zOnhsaW5rPSJodHRwOi8vd3d3LnczLm9yZy8xOTk5L3hsaW5rIiB2aWV3Qm94PSIwIDAgMTMxIDgxIiBmaWxsPSIjZmZmIiBmaWxsLXJ1bGU9ImV2ZW5vZGQiIHN0cm9rZT0iIzAwMCIgc3Ryb2tlLWxpbmVjYXA9InJvdW5kIiBzdHJva2UtbGluZWpvaW49InJvdW5kIj48dXNlIHhsaW5rOmhyZWY9IiNBIiB4PSIuNSIgeT0iLjUiLz48c3ltYm9sIGlkPSJBIiBvdmVyZmxvdz0idmlzaWJsZSI+PHBhdGggY2xhc3M9ImNvbG9yIiBkPSJNMTE5LjA3OCA2Mi43MDNWNy4yNzVjMC0yLjc0Ni0yLjU0LTcuMjc1LTUuNTgtNy4yNzVIMTYuNDc1Yy0zLjA0IDAtNi4wOCA0LjUzLTYuMDggNy4yNzV2NTUuNDI3Qy0uNDk4IDc0LjI0NC4wMDQgNzQuMjQ0LjAwNCA3NC4yNDQuMDA0IDc3LjUxNiAzLjA0NCA4MCA2Ljg1MiA4MGgxMTYuM2MzLjgwOCAwIDYuODQ4LTIuNzQ3IDYuODQ4LTUuNzU2bC0xMC45MjItMTEuNTR6TTczLjk3NSA3NS4yMzdoLTIwLjI4Yy0xLjAwNCAwLTIuMDM3LS40OTctMi4wMzctLjk5M2wyLjI3My0zLjc3YzAtLjQ5Ny43NjctLjc2IDEuNzctLjc2SDcxLjkxYy43NjcgMCAxLjUzNS4yNjMgMS41MzUuNzZsMi41NCAzLjc3Yy4wMy43My0xLjAwNC45OTMtMi4wMDcuOTkzaDB6bTQwLjI5Mi0xMi43OThIMTUuMjA1VjcuNzcyYzAtMS4yNTYgMS4yNy0zLjAxIDIuNzc1LTMuMDFoOTMuNzVjMS41MzUgMCAyLjU0IDEuNzUzIDIuNTQgM1Y2Mi40NHoiIGZpbGw9IiMyYTMyODIiIHN0cm9rZT0ibm9uZSIvPjwvc3ltYm9sPjxzdHlsZSB0eXBlPSJ0ZXh0L2NzcyI+LmNvbG9yIHsgZmlsbDogcmdiKDAsIDE3LCA1Myk7IH0gPC9zdHlsZT48L3N2Zz4=;" parent="tuzMwipLeWRuzpTrGQp2-105" vertex="1">
          <mxGeometry width="53.833333333333336" height="33.28625954198473" as="geometry" />
        </mxCell>
        <mxCell id="tuzMwipLeWRuzpTrGQp2-108" value="" style="shape=image;verticalLabelPosition=bottom;labelBackgroundColor=#ffffff;verticalAlign=top;aspect=fixed;imageAspect=0;image=data:image/svg+xml,PHN2ZyB4bWxucz0iaHR0cDovL3d3dy53My5vcmcvMjAwMC9zdmciIHhtbG5zOnhsaW5rPSJodHRwOi8vd3d3LnczLm9yZy8xOTk5L3hsaW5rIiB2aWV3Qm94PSIwIDAgNjUgNTciIGZpbGw9IiNmZmYiIGZpbGwtcnVsZT0iZXZlbm9kZCIgc3Ryb2tlPSIjMDAwIiBzdHJva2UtbGluZWNhcD0icm91bmQiIHN0cm9rZS1saW5lam9pbj0icm91bmQiPjx1c2UgeGxpbms6aHJlZj0iI0EiIHg9Ii41IiB5PSIuNSIvPjxzeW1ib2wgaWQ9IkEiIG92ZXJmbG93PSJ2aXNpYmxlIj48ZyBzdHJva2U9Im5vbmUiIGZpbGw9IiMwZDU5N2YiIGZpbGwtcnVsZT0ibm9uemVybyI+PHBhdGggZD0iTTIzLjI1MiAzNC41Mjd2LTYuNzQ1bC00Ljg1NSA0Ljg2NGMuNDc0LjMzMy45NjguNjM1IDEuNDguOTA2LjQ2My4yNDMuODcuNDM0IDEuMzAzLjU4YTcuOTcgNy45NyAwIDAgMCAxLjEzLjMwNGMuMzQ4LjA2NC42Ni4wOTMuOTUuMDk2bTI0LjgyMi0uNTYyYTEuMTcgMS4xNyAwIDAgMCAuMTQyLjFjLjEyMy4wNzguMjUyLjE0NS4zODUuMjAzYTIuOTMgMi45MyAwIDAgMCAuNjM3LjE5NGMuMjk2LjA2LjU5OC4wODguOS4wODdhNS44NCA1Ljg0IDAgMCAwIC45NTUtLjA4NyA3LjI0IDcuMjQgMCAwIDAgMS4xMzgtLjMwMWMuNDUzLS4xNi44OTUtLjM1NCAxLjMyLS41OC41Mi0uMjc0IDEuMDItLjU4IDEuNTAzLS45MThsLTMuNjg1LTMuNi0xMi4yLTEyLjI1OC01LjM1NiA1LjM1Ni03LjIzLTcuNDU1TDguNDQgMzIuNjQ3Yy40OC4zMzcuOTguNjQ0IDEuNS45MTguNDcuMjQ2LjkuNDM0IDEuMzE3LjU4YTcuMTggNy4xOCAwIDAgMCAxLjEzNS4zMDEgNS41MyA1LjUzIDAgMCAwIC45NTUuMDg3IDQuNTMgNC41MyAwIDAgMCAuOS0uMDg3IDMuMjkgMy4yOSAwIDAgMCAuNjM3LS4xOTRjLjEzNC0uMDU0LjI2My0uMTIuMzg1LS4xOTdsLjE0NS0uMTA0IDguMTkzLTguMTkzIDIuOTI0LTIuODA4IDguMTA2IDguMTA2IDIuODM3IDIuOTEyYy4wNDYuMDM3LjA5NC4wNy4xNDUuMS4xMjIuMDc4LjI1LjE0NS4zODUuMmEzLjQ5IDMuNDkgMCAwIDAgLjYzNy4xOTRjLjI1NS4wNTIuNTU2LjA4Ny45MDMuMDg3YTUuODQgNS44NCAwIDAgMCAuOTU1LS4wODdjLjM4Ny0uMDY4Ljc2OC0uMTY4IDEuMTM4LS4zYTkuOTQgOS45NCAwIDAgMCAxLjMyLS41NzljLjUyLS4yNzQgMS4wMi0uNTggMS41MDMtLjkxOGwtNi41MDgtNi4zNyAxLjItMS4yIDUuNjMgNS42MyAzLjI4MyAzLjI1NE00Ny45OTYuMDJsMTUuOTk4IDI3LjcxNC0xNS45OSAyNy42OTRIMTUuOTk4TDAgMjcuNzE0IDE1Ljk5OCAweiIvPjxwYXRoIGQ9Ik0zOC4wMjIgMjYuMzY3TDMzLjc2IDIyLjExbC4zMDQtLjMwNCA0LjMgNC4yNDR6Ii8+PC9nPjwvc3ltYm9sPjwvc3ZnPg==;fontColor=#001135;" parent="tuzMwipLeWRuzpTrGQp2-105" vertex="1">
          <mxGeometry x="17.080534351145033" y="5.876543209876559" width="19.679987277353693" height="17.259541984732824" as="geometry" />
        </mxCell>
        <mxCell id="tuzMwipLeWRuzpTrGQp2-109" style="rounded=0;orthogonalLoop=1;jettySize=auto;html=1;fontFamily=Manrope;fontSize=12;fontColor=#FFFFFF;endArrow=oval;endFill=1;startArrow=none;startFill=0;strokeColor=#98A2AE;entryX=0.5;entryY=1;entryDx=0;entryDy=0;exitX=0.75;exitY=0;exitDx=0;exitDy=0;" parent="tuzMwipLeWRuzpTrGQp2-1" source="tuzMwipLeWRuzpTrGQp2-127" target="tuzMwipLeWRuzpTrGQp2-14" edge="1">
          <mxGeometry relative="1" as="geometry">
            <mxPoint x="300" y="500" as="sourcePoint" />
            <mxPoint x="344.38" y="478" as="targetPoint" />
          </mxGeometry>
        </mxCell>
        <mxCell id="tuzMwipLeWRuzpTrGQp2-110" style="rounded=0;orthogonalLoop=1;jettySize=auto;html=1;fontFamily=Manrope;fontSize=12;fontColor=#FFFFFF;endArrow=oval;endFill=1;startArrow=none;startFill=1;entryX=0.5;entryY=1;entryDx=0;entryDy=0;strokeColor=#98A2AE;exitX=0.25;exitY=0;exitDx=0;exitDy=0;" parent="tuzMwipLeWRuzpTrGQp2-1" source="tuzMwipLeWRuzpTrGQp2-127" target="tuzMwipLeWRuzpTrGQp2-4" edge="1">
          <mxGeometry relative="1" as="geometry">
            <mxPoint x="270" y="510" as="sourcePoint" />
            <mxPoint x="190.5" y="422" as="targetPoint" />
          </mxGeometry>
        </mxCell>
        <mxCell id="tuzMwipLeWRuzpTrGQp2-111" style="rounded=0;orthogonalLoop=1;jettySize=auto;html=1;fontFamily=Manrope;fontSize=12;fontColor=#FFFFFF;endArrow=oval;endFill=1;startArrow=none;startFill=1;entryX=0.5;entryY=1;entryDx=0;entryDy=0;strokeColor=#98A2AE;exitX=0.25;exitY=0;exitDx=0;exitDy=0;" parent="tuzMwipLeWRuzpTrGQp2-1" source="tuzMwipLeWRuzpTrGQp2-128" target="tuzMwipLeWRuzpTrGQp2-46" edge="1">
          <mxGeometry relative="1" as="geometry">
            <mxPoint x="530" y="500" as="sourcePoint" />
            <mxPoint x="511.5" y="420" as="targetPoint" />
          </mxGeometry>
        </mxCell>
        <mxCell id="tuzMwipLeWRuzpTrGQp2-112" style="rounded=0;orthogonalLoop=1;jettySize=auto;html=1;fontFamily=Manrope;fontSize=12;fontColor=#FFFFFF;endArrow=oval;endFill=1;startArrow=none;startFill=0;strokeColor=#98A2AE;entryX=0.5;entryY=1;entryDx=0;entryDy=0;exitX=0.75;exitY=0;exitDx=0;exitDy=0;" parent="tuzMwipLeWRuzpTrGQp2-1" source="tuzMwipLeWRuzpTrGQp2-128" target="tuzMwipLeWRuzpTrGQp2-54" edge="1">
          <mxGeometry relative="1" as="geometry">
            <mxPoint x="540" y="500" as="sourcePoint" />
            <mxPoint x="665.38" y="476" as="targetPoint" />
          </mxGeometry>
        </mxCell>
        <mxCell id="tuzMwipLeWRuzpTrGQp2-113" value="&lt;div style=&quot;font-size: 14px;&quot;&gt;&lt;font style=&quot;font-size: 14px;&quot;&gt;192.168.1.10&lt;/font&gt;&lt;/div&gt;" style="rounded=1;whiteSpace=wrap;html=1;fontFamily=Manrope;fontSource=https%3A%2F%2Ffonts.googleapis.com%2Fcss%3Ffamily%3DManrope;fontSize=14;fontColor=#FFFFFF;spacing=0;arcSize=15;fillColor=#002060;strokeColor=none;align=center;verticalAlign=middle;labelPosition=center;verticalLabelPosition=middle;horizontal=1;" parent="tuzMwipLeWRuzpTrGQp2-1" vertex="1">
          <mxGeometry x="301" y="499" width="81" height="22" as="geometry" />
        </mxCell>
        <mxCell id="tuzMwipLeWRuzpTrGQp2-114" value="&lt;div style=&quot;font-size: 14px;&quot;&gt;&lt;font style=&quot;font-size: 14px;&quot;&gt;192.168.1.20&lt;/font&gt;&lt;/div&gt;" style="rounded=1;whiteSpace=wrap;html=1;fontFamily=Manrope;fontSource=https%3A%2F%2Ffonts.googleapis.com%2Fcss%3Ffamily%3DManrope;fontSize=14;fontColor=#FFFFFF;spacing=0;arcSize=15;fillColor=#002060;strokeColor=none;align=center;verticalAlign=middle;labelPosition=center;verticalLabelPosition=middle;horizontal=1;" parent="tuzMwipLeWRuzpTrGQp2-1" vertex="1">
          <mxGeometry x="441" y="499" width="81" height="22" as="geometry" />
        </mxCell>
        <mxCell id="tuzMwipLeWRuzpTrGQp2-117" value="31" style="ellipse;whiteSpace=wrap;html=1;aspect=fixed;fontColor=#FFFFFF;fontSize=8;strokeColor=#98A2AE;fontFamily=Manrope;fontSource=https://fonts.googleapis.com/css?family=Manrope;fillColor=#BEC8D2;strokeWidth=1;" parent="tuzMwipLeWRuzpTrGQp2-1" vertex="1">
          <mxGeometry x="453" y="301" width="10" height="10" as="geometry" />
        </mxCell>
        <mxCell id="tuzMwipLeWRuzpTrGQp2-118" value="32" style="ellipse;whiteSpace=wrap;html=1;aspect=fixed;fontColor=#FFFFFF;fontSize=8;strokeColor=#98A2AE;fontFamily=Manrope;fontSource=https://fonts.googleapis.com/css?family=Manrope;fillColor=#BEC8D2;strokeWidth=1;" parent="tuzMwipLeWRuzpTrGQp2-1" vertex="1">
          <mxGeometry x="463" y="301" width="10" height="10" as="geometry" />
        </mxCell>
        <mxCell id="tuzMwipLeWRuzpTrGQp2-123" value="11" style="ellipse;whiteSpace=wrap;html=1;aspect=fixed;fontColor=#FFFFFF;fontSize=8;strokeColor=#98A2AE;fontFamily=Manrope;fontSource=https://fonts.googleapis.com/css?family=Manrope;fillColor=#BEC8D2;strokeWidth=1;" parent="tuzMwipLeWRuzpTrGQp2-1" vertex="1">
          <mxGeometry x="443" y="361" width="10" height="10" as="geometry" />
        </mxCell>
        <mxCell id="tuzMwipLeWRuzpTrGQp2-124" value="12" style="ellipse;whiteSpace=wrap;html=1;aspect=fixed;fontColor=#FFFFFF;fontSize=8;strokeColor=#98A2AE;fontFamily=Manrope;fontSource=https://fonts.googleapis.com/css?family=Manrope;fillColor=#BEC8D2;strokeWidth=1;" parent="tuzMwipLeWRuzpTrGQp2-1" vertex="1">
          <mxGeometry x="453" y="361" width="10" height="10" as="geometry" />
        </mxCell>
        <mxCell id="tuzMwipLeWRuzpTrGQp2-125" value="13" style="ellipse;whiteSpace=wrap;html=1;aspect=fixed;fontColor=#FFFFFF;fontSize=8;strokeColor=#98A2AE;fontFamily=Manrope;fontSource=https://fonts.googleapis.com/css?family=Manrope;fillColor=#BEC8D2;strokeWidth=1;" parent="tuzMwipLeWRuzpTrGQp2-1" vertex="1">
          <mxGeometry x="463" y="361" width="10" height="10" as="geometry" />
        </mxCell>
        <mxCell id="tuzMwipLeWRuzpTrGQp2-126" value="14" style="ellipse;whiteSpace=wrap;html=1;aspect=fixed;fontColor=#FFFFFF;fontSize=8;strokeColor=#98A2AE;fontFamily=Manrope;fontSource=https://fonts.googleapis.com/css?family=Manrope;fillColor=#BEC8D2;strokeWidth=1;" parent="tuzMwipLeWRuzpTrGQp2-1" vertex="1">
          <mxGeometry x="473" y="361" width="10" height="10" as="geometry" />
        </mxCell>
        <mxCell id="tuzMwipLeWRuzpTrGQp2-127" value="&lt;font style=&quot;font-size: 8px;&quot;&gt;bond0&lt;/font&gt;" style="rounded=1;whiteSpace=wrap;html=1;fontSize=8;strokeWidth=1;fillColor=#BEC8D2;strokeColor=#98A2AE;fontColor=#FFFFFF;fontFamily=Manrope;fontSource=https%3A%2F%2Ffonts.googleapis.com%2Fcss%3Ffamily%3DManrope;" parent="tuzMwipLeWRuzpTrGQp2-1" vertex="1">
          <mxGeometry x="272.67" y="498" width="28.5" height="12" as="geometry" />
        </mxCell>
        <mxCell id="tuzMwipLeWRuzpTrGQp2-128" value="&lt;font style=&quot;font-size: 8px;&quot;&gt;bond0&lt;/font&gt;" style="rounded=1;whiteSpace=wrap;html=1;fontSize=8;strokeWidth=1;fillColor=#BEC8D2;strokeColor=#98A2AE;fontColor=#FFFFFF;fontFamily=Manrope;fontSource=https%3A%2F%2Ffonts.googleapis.com%2Fcss%3Ffamily%3DManrope;" parent="tuzMwipLeWRuzpTrGQp2-1" vertex="1">
          <mxGeometry x="521.75" y="498" width="28.5" height="12" as="geometry" />
        </mxCell>
        <mxCell id="HZyWptrRybt8TGg7zKzo-6" value="&lt;div style=&quot;font-size: 10px;&quot;&gt;&lt;font style=&quot;font-size: 10px;&quot;&gt;MAC-VRF&lt;/font&gt;&lt;/div&gt;" style="rounded=1;whiteSpace=wrap;html=1;fontFamily=Manrope;fontSource=https%3A%2F%2Ffonts.googleapis.com%2Fcss%3Ffamily%3DManrope;fontSize=10;fontColor=#FFFFFF;spacing=0;arcSize=50;fillColor=#576649;strokeColor=none;align=center;verticalAlign=middle;labelPosition=center;verticalLabelPosition=middle;horizontal=1;" vertex="1" parent="tuzMwipLeWRuzpTrGQp2-1">
          <mxGeometry x="207" y="398" width="50" height="18" as="geometry" />
        </mxCell>
        <mxCell id="tuzMwipLeWRuzpTrGQp2-12" value="" style="group" parent="tuzMwipLeWRuzpTrGQp2-1" vertex="1" connectable="0">
          <mxGeometry x="308" y="416" width="50" height="50" as="geometry" />
        </mxCell>
        <mxCell id="tuzMwipLeWRuzpTrGQp2-13" value="" style="group" parent="tuzMwipLeWRuzpTrGQp2-12" vertex="1" connectable="0">
          <mxGeometry width="50" height="50" as="geometry" />
        </mxCell>
        <mxCell id="tuzMwipLeWRuzpTrGQp2-19" value="51" style="ellipse;whiteSpace=wrap;html=1;aspect=fixed;fontColor=#FFFFFF;fontSize=8;strokeColor=#98A2AE;fontFamily=Manrope;fontSource=https://fonts.googleapis.com/css?family=Manrope;fillColor=#BEC8D2;strokeWidth=1;" parent="tuzMwipLeWRuzpTrGQp2-13" vertex="1">
          <mxGeometry x="15" y="-10" width="10" height="10" as="geometry" />
        </mxCell>
        <mxCell id="tuzMwipLeWRuzpTrGQp2-20" value="52" style="ellipse;whiteSpace=wrap;html=1;aspect=fixed;fontColor=#FFFFFF;fontSize=8;strokeColor=#98A2AE;fontFamily=Manrope;fontSource=https://fonts.googleapis.com/css?family=Manrope;fillColor=#BEC8D2;strokeWidth=1;" parent="tuzMwipLeWRuzpTrGQp2-13" vertex="1">
          <mxGeometry x="25" y="-10" width="10" height="10" as="geometry" />
        </mxCell>
        <mxCell id="tuzMwipLeWRuzpTrGQp2-14" value="" style="whiteSpace=wrap;html=1;aspect=fixed;fillColor=#001135;strokeColor=none;connectable=1;allowArrows=1;fontFamily=Manrope;fontSource=https%3A%2F%2Ffonts.googleapis.com%2Fcss%3Ffamily%3DManrope;" parent="tuzMwipLeWRuzpTrGQp2-13" vertex="1">
          <mxGeometry width="50" height="50" as="geometry" />
        </mxCell>
        <mxCell id="tuzMwipLeWRuzpTrGQp2-15" value="" style="endArrow=open;html=1;edgeStyle=orthogonalEdgeStyle;rounded=0;endFill=0;startSize=6;endSize=2;strokeColor=#FFFFFF;fontFamily=Manrope;fontSource=https%3A%2F%2Ffonts.googleapis.com%2Fcss%3Ffamily%3DManrope;" parent="tuzMwipLeWRuzpTrGQp2-13" edge="1">
          <mxGeometry width="83.33333333333334" height="83.33333333333334" as="geometry">
            <mxPoint x="5" y="20" as="sourcePoint" />
            <mxPoint x="18.333333333333336" y="5" as="targetPoint" />
            <Array as="points">
              <mxPoint x="18.333333333333336" y="20" />
            </Array>
          </mxGeometry>
        </mxCell>
        <mxCell id="tuzMwipLeWRuzpTrGQp2-16" value="" style="endArrow=open;html=1;edgeStyle=orthogonalEdgeStyle;rounded=0;endFill=0;startSize=6;endSize=2;strokeColor=#FFFFFF;fontFamily=Manrope;fontSource=https%3A%2F%2Ffonts.googleapis.com%2Fcss%3Ffamily%3DManrope;" parent="tuzMwipLeWRuzpTrGQp2-13" edge="1">
          <mxGeometry width="83.33333333333334" height="83.33333333333334" as="geometry">
            <mxPoint x="18.333333333333336" y="45" as="sourcePoint" />
            <mxPoint x="5" y="31.666666666666668" as="targetPoint" />
            <Array as="points">
              <mxPoint x="18.333333333333336" y="31.666666666666668" />
            </Array>
          </mxGeometry>
        </mxCell>
        <mxCell id="tuzMwipLeWRuzpTrGQp2-17" value="" style="endArrow=open;html=1;edgeStyle=orthogonalEdgeStyle;rounded=0;endFill=0;startSize=6;endSize=2;strokeColor=#FFFFFF;fontFamily=Manrope;fontSource=https%3A%2F%2Ffonts.googleapis.com%2Fcss%3Ffamily%3DManrope;" parent="tuzMwipLeWRuzpTrGQp2-13" edge="1">
          <mxGeometry width="83.33333333333334" height="83.33333333333334" as="geometry">
            <mxPoint x="30" y="5" as="sourcePoint" />
            <mxPoint x="45" y="20" as="targetPoint" />
            <Array as="points">
              <mxPoint x="30" y="20" />
            </Array>
          </mxGeometry>
        </mxCell>
        <mxCell id="tuzMwipLeWRuzpTrGQp2-18" value="" style="endArrow=open;html=1;edgeStyle=orthogonalEdgeStyle;rounded=0;endFill=0;startSize=6;endSize=2;strokeColor=#FFFFFF;fontFamily=Manrope;fontSource=https%3A%2F%2Ffonts.googleapis.com%2Fcss%3Ffamily%3DManrope;" parent="tuzMwipLeWRuzpTrGQp2-13" edge="1">
          <mxGeometry width="83.33333333333334" height="83.33333333333334" as="geometry">
            <mxPoint x="45" y="31.666666666666668" as="sourcePoint" />
            <mxPoint x="30" y="45" as="targetPoint" />
            <Array as="points">
              <mxPoint x="30" y="31.666666666666668" />
            </Array>
          </mxGeometry>
        </mxCell>
        <mxCell id="HZyWptrRybt8TGg7zKzo-11" value="&lt;div style=&quot;font-size: 10px;&quot;&gt;&lt;font style=&quot;font-size: 10px;&quot;&gt;MAC-VRF&lt;/font&gt;&lt;/div&gt;" style="rounded=1;whiteSpace=wrap;html=1;fontFamily=Manrope;fontSource=https%3A%2F%2Ffonts.googleapis.com%2Fcss%3Ffamily%3DManrope;fontSize=10;fontColor=#FFFFFF;spacing=0;arcSize=50;fillColor=#576649;strokeColor=none;align=center;verticalAlign=middle;labelPosition=center;verticalLabelPosition=middle;horizontal=1;" vertex="1" parent="tuzMwipLeWRuzpTrGQp2-13">
          <mxGeometry y="-18" width="50" height="18" as="geometry" />
        </mxCell>
        <mxCell id="HZyWptrRybt8TGg7zKzo-12" value="&lt;div style=&quot;font-size: 10px;&quot;&gt;&lt;font style=&quot;font-size: 10px;&quot;&gt;MAC-VRF&lt;/font&gt;&lt;/div&gt;" style="rounded=1;whiteSpace=wrap;html=1;fontFamily=Manrope;fontSource=https%3A%2F%2Ffonts.googleapis.com%2Fcss%3Ffamily%3DManrope;fontSize=10;fontColor=#FFFFFF;spacing=0;arcSize=50;fillColor=#576649;strokeColor=none;align=center;verticalAlign=middle;labelPosition=center;verticalLabelPosition=middle;horizontal=1;" vertex="1" parent="tuzMwipLeWRuzpTrGQp2-1">
          <mxGeometry x="461" y="398" width="50" height="18" as="geometry" />
        </mxCell>
        <mxCell id="tuzMwipLeWRuzpTrGQp2-66" value="" style="whiteSpace=wrap;html=1;aspect=fixed;fillColor=#001135;strokeColor=none;connectable=1;allowArrows=1;fontFamily=Manrope;fontSource=https%3A%2F%2Ffonts.googleapis.com%2Fcss%3Ffamily%3DManrope;" parent="tuzMwipLeWRuzpTrGQp2-1" vertex="1">
          <mxGeometry x="339" y="151" width="50" height="50" as="geometry" />
        </mxCell>
        <mxCell id="tuzMwipLeWRuzpTrGQp2-67" value="" style="endArrow=open;html=1;edgeStyle=orthogonalEdgeStyle;rounded=0;endFill=0;startSize=6;endSize=2;strokeColor=#FFFFFF;fontFamily=Manrope;fontSource=https%3A%2F%2Ffonts.googleapis.com%2Fcss%3Ffamily%3DManrope;" parent="tuzMwipLeWRuzpTrGQp2-1" edge="1">
          <mxGeometry x="339" y="151" width="83.33333333333334" height="83.33333333333334" as="geometry">
            <mxPoint x="344" y="171" as="sourcePoint" />
            <mxPoint x="357.3333333333333" y="156" as="targetPoint" />
            <Array as="points">
              <mxPoint x="357.3333333333333" y="171" />
            </Array>
          </mxGeometry>
        </mxCell>
        <mxCell id="tuzMwipLeWRuzpTrGQp2-68" value="" style="endArrow=open;html=1;edgeStyle=orthogonalEdgeStyle;rounded=0;endFill=0;startSize=6;endSize=2;strokeColor=#FFFFFF;fontFamily=Manrope;fontSource=https%3A%2F%2Ffonts.googleapis.com%2Fcss%3Ffamily%3DManrope;" parent="tuzMwipLeWRuzpTrGQp2-1" edge="1">
          <mxGeometry x="339" y="151" width="83.33333333333334" height="83.33333333333334" as="geometry">
            <mxPoint x="357.3333333333333" y="196" as="sourcePoint" />
            <mxPoint x="344" y="182.66666666666666" as="targetPoint" />
            <Array as="points">
              <mxPoint x="357.3333333333333" y="182.66666666666666" />
            </Array>
          </mxGeometry>
        </mxCell>
        <mxCell id="tuzMwipLeWRuzpTrGQp2-69" value="" style="endArrow=open;html=1;edgeStyle=orthogonalEdgeStyle;rounded=0;endFill=0;startSize=6;endSize=2;strokeColor=#FFFFFF;fontFamily=Manrope;fontSource=https%3A%2F%2Ffonts.googleapis.com%2Fcss%3Ffamily%3DManrope;" parent="tuzMwipLeWRuzpTrGQp2-1" edge="1">
          <mxGeometry x="339" y="151" width="83.33333333333334" height="83.33333333333334" as="geometry">
            <mxPoint x="369" y="156" as="sourcePoint" />
            <mxPoint x="384" y="171" as="targetPoint" />
            <Array as="points">
              <mxPoint x="369" y="171" />
            </Array>
          </mxGeometry>
        </mxCell>
        <mxCell id="tuzMwipLeWRuzpTrGQp2-70" value="" style="endArrow=open;html=1;edgeStyle=orthogonalEdgeStyle;rounded=0;endFill=0;startSize=6;endSize=2;strokeColor=#FFFFFF;fontFamily=Manrope;fontSource=https%3A%2F%2Ffonts.googleapis.com%2Fcss%3Ffamily%3DManrope;" parent="tuzMwipLeWRuzpTrGQp2-1" edge="1">
          <mxGeometry x="339" y="151" width="83.33333333333334" height="83.33333333333334" as="geometry">
            <mxPoint x="384" y="182.66666666666666" as="sourcePoint" />
            <mxPoint x="369" y="196" as="targetPoint" />
            <Array as="points">
              <mxPoint x="369" y="182.66666666666666" />
            </Array>
          </mxGeometry>
        </mxCell>
        <mxCell id="tuzMwipLeWRuzpTrGQp2-76" value="&lt;font&gt;dcgw1&lt;/font&gt;" style="text;html=1;align=center;verticalAlign=middle;resizable=0;points=[];autosize=1;fontSize=14;fontFamily=Manrope;fontStyle=0;fontColor=#FFFFFF;" parent="tuzMwipLeWRuzpTrGQp2-1" vertex="1">
          <mxGeometry x="338" y="129" width="52" height="22" as="geometry" />
        </mxCell>
        <mxCell id="tuzMwipLeWRuzpTrGQp2-77" value="&lt;font&gt;dcgw2&lt;/font&gt;" style="text;html=1;align=center;verticalAlign=middle;resizable=0;points=[];autosize=1;fontSize=14;fontFamily=Manrope;fontStyle=0;fontColor=#FFFFFF;" parent="tuzMwipLeWRuzpTrGQp2-1" vertex="1">
          <mxGeometry x="437" y="129" width="54" height="22" as="geometry" />
        </mxCell>
        <mxCell id="tuzMwipLeWRuzpTrGQp2-78" value="" style="group" parent="tuzMwipLeWRuzpTrGQp2-1" vertex="1" connectable="0">
          <mxGeometry x="439" y="151" width="50" height="50" as="geometry" />
        </mxCell>
        <mxCell id="tuzMwipLeWRuzpTrGQp2-79" value="" style="group" parent="tuzMwipLeWRuzpTrGQp2-78" vertex="1" connectable="0">
          <mxGeometry width="50" height="50" as="geometry" />
        </mxCell>
        <mxCell id="tuzMwipLeWRuzpTrGQp2-80" value="" style="whiteSpace=wrap;html=1;aspect=fixed;fillColor=#001135;strokeColor=none;connectable=1;allowArrows=1;fontFamily=Manrope;fontSource=https%3A%2F%2Ffonts.googleapis.com%2Fcss%3Ffamily%3DManrope;" parent="tuzMwipLeWRuzpTrGQp2-79" vertex="1">
          <mxGeometry width="50" height="50" as="geometry" />
        </mxCell>
        <mxCell id="tuzMwipLeWRuzpTrGQp2-81" value="" style="endArrow=open;html=1;edgeStyle=orthogonalEdgeStyle;rounded=0;endFill=0;startSize=6;endSize=2;strokeColor=#FFFFFF;fontFamily=Manrope;fontSource=https%3A%2F%2Ffonts.googleapis.com%2Fcss%3Ffamily%3DManrope;" parent="tuzMwipLeWRuzpTrGQp2-79" edge="1">
          <mxGeometry width="83.33333333333334" height="83.33333333333334" as="geometry">
            <mxPoint x="5" y="20" as="sourcePoint" />
            <mxPoint x="18.333333333333336" y="5" as="targetPoint" />
            <Array as="points">
              <mxPoint x="18.333333333333336" y="20" />
            </Array>
          </mxGeometry>
        </mxCell>
        <mxCell id="tuzMwipLeWRuzpTrGQp2-82" value="" style="endArrow=open;html=1;edgeStyle=orthogonalEdgeStyle;rounded=0;endFill=0;startSize=6;endSize=2;strokeColor=#FFFFFF;fontFamily=Manrope;fontSource=https%3A%2F%2Ffonts.googleapis.com%2Fcss%3Ffamily%3DManrope;" parent="tuzMwipLeWRuzpTrGQp2-79" edge="1">
          <mxGeometry width="83.33333333333334" height="83.33333333333334" as="geometry">
            <mxPoint x="18.333333333333336" y="45" as="sourcePoint" />
            <mxPoint x="5" y="31.666666666666668" as="targetPoint" />
            <Array as="points">
              <mxPoint x="18.333333333333336" y="31.666666666666668" />
            </Array>
          </mxGeometry>
        </mxCell>
        <mxCell id="tuzMwipLeWRuzpTrGQp2-83" value="" style="endArrow=open;html=1;edgeStyle=orthogonalEdgeStyle;rounded=0;endFill=0;startSize=6;endSize=2;strokeColor=#FFFFFF;fontFamily=Manrope;fontSource=https%3A%2F%2Ffonts.googleapis.com%2Fcss%3Ffamily%3DManrope;" parent="tuzMwipLeWRuzpTrGQp2-79" edge="1">
          <mxGeometry width="83.33333333333334" height="83.33333333333334" as="geometry">
            <mxPoint x="30" y="5" as="sourcePoint" />
            <mxPoint x="45" y="20" as="targetPoint" />
            <Array as="points">
              <mxPoint x="30" y="20" />
            </Array>
          </mxGeometry>
        </mxCell>
        <mxCell id="tuzMwipLeWRuzpTrGQp2-84" value="" style="endArrow=open;html=1;edgeStyle=orthogonalEdgeStyle;rounded=0;endFill=0;startSize=6;endSize=2;strokeColor=#FFFFFF;fontFamily=Manrope;fontSource=https%3A%2F%2Ffonts.googleapis.com%2Fcss%3Ffamily%3DManrope;" parent="tuzMwipLeWRuzpTrGQp2-79" edge="1">
          <mxGeometry width="83.33333333333334" height="83.33333333333334" as="geometry">
            <mxPoint x="45" y="31.666666666666668" as="sourcePoint" />
            <mxPoint x="30" y="45" as="targetPoint" />
            <Array as="points">
              <mxPoint x="30" y="31.666666666666668" />
            </Array>
          </mxGeometry>
        </mxCell>
        <mxCell id="tuzMwipLeWRuzpTrGQp2-91" value="&lt;font color=&quot;#001135&quot; style=&quot;font-size: 8px ; line-height: 100%&quot;&gt;&lt;br&gt;&lt;/font&gt;" style="rounded=1;whiteSpace=wrap;html=1;fontFamily=Manrope;fontSource=https%3A%2F%2Ffonts.googleapis.com%2Fcss%3Ffamily%3DManrope;fontSize=16;fontColor=#FFFFFF;spacing=0;arcSize=7;fillColor=#00C9FF;strokeColor=none;" parent="tuzMwipLeWRuzpTrGQp2-1" vertex="1">
          <mxGeometry x="319" y="140" width="24" height="17" as="geometry" />
        </mxCell>
        <mxCell id="tuzMwipLeWRuzpTrGQp2-92" value="&lt;font style=&quot;font-size: 8px;&quot;&gt;SR&lt;/font&gt;" style="text;html=1;align=center;verticalAlign=middle;resizable=0;points=[];autosize=1;strokeColor=none;fillColor=none;fontSize=8;fontFamily=Manrope;fontColor=#FFFFFF;" parent="tuzMwipLeWRuzpTrGQp2-1" vertex="1">
          <mxGeometry x="319" y="137" width="21" height="15" as="geometry" />
        </mxCell>
        <mxCell id="tuzMwipLeWRuzpTrGQp2-93" value="&lt;font style=&quot;font-size: 8px&quot;&gt;OS&lt;/font&gt;" style="text;html=1;align=center;verticalAlign=middle;resizable=0;points=[];autosize=1;strokeColor=none;fillColor=none;fontSize=8;fontFamily=Manrope;fontColor=#FFFFFF;" parent="tuzMwipLeWRuzpTrGQp2-1" vertex="1">
          <mxGeometry x="319" y="145" width="22" height="15" as="geometry" />
        </mxCell>
        <mxCell id="tuzMwipLeWRuzpTrGQp2-94" value="&lt;font color=&quot;#001135&quot; style=&quot;font-size: 8px ; line-height: 100%&quot;&gt;&lt;br&gt;&lt;/font&gt;" style="rounded=1;whiteSpace=wrap;html=1;fontFamily=Manrope;fontSource=https%3A%2F%2Ffonts.googleapis.com%2Fcss%3Ffamily%3DManrope;fontSize=16;fontColor=#FFFFFF;spacing=0;arcSize=7;fillColor=#00C9FF;strokeColor=none;" parent="tuzMwipLeWRuzpTrGQp2-1" vertex="1">
          <mxGeometry x="418" y="141" width="24" height="17" as="geometry" />
        </mxCell>
        <mxCell id="tuzMwipLeWRuzpTrGQp2-95" value="&lt;font style=&quot;font-size: 8px;&quot;&gt;SR&lt;/font&gt;" style="text;html=1;align=center;verticalAlign=middle;resizable=0;points=[];autosize=1;strokeColor=none;fillColor=none;fontSize=8;fontFamily=Manrope;fontColor=#FFFFFF;" parent="tuzMwipLeWRuzpTrGQp2-1" vertex="1">
          <mxGeometry x="418.5" y="137" width="21" height="15" as="geometry" />
        </mxCell>
        <mxCell id="tuzMwipLeWRuzpTrGQp2-96" value="&lt;font style=&quot;font-size: 8px&quot;&gt;OS&lt;/font&gt;" style="text;html=1;align=center;verticalAlign=middle;resizable=0;points=[];autosize=1;strokeColor=none;fillColor=none;fontSize=8;fontFamily=Manrope;fontColor=#FFFFFF;" parent="tuzMwipLeWRuzpTrGQp2-1" vertex="1">
          <mxGeometry x="417.5" y="145" width="22" height="15" as="geometry" />
        </mxCell>
        <mxCell id="tuzMwipLeWRuzpTrGQp2-115" value="&lt;div style=&quot;font-size: 14px;&quot;&gt;&lt;font style=&quot;font-size: 14px;&quot;&gt;192.168.1.31&lt;/font&gt;&lt;/div&gt;" style="rounded=1;whiteSpace=wrap;html=1;fontFamily=Manrope;fontSource=https%3A%2F%2Ffonts.googleapis.com%2Fcss%3Ffamily%3DManrope;fontSize=14;fontColor=#FFFFFF;spacing=0;arcSize=15;fillColor=#002060;strokeColor=none;align=center;verticalAlign=middle;labelPosition=center;verticalLabelPosition=middle;horizontal=1;" parent="tuzMwipLeWRuzpTrGQp2-1" vertex="1">
          <mxGeometry x="257" y="179" width="81" height="22" as="geometry" />
        </mxCell>
        <mxCell id="HZyWptrRybt8TGg7zKzo-0" value="&lt;div style=&quot;font-size: 14px;&quot;&gt;&lt;font style=&quot;font-size: 14px;&quot;&gt;192.168.1.32&lt;/font&gt;&lt;/div&gt;" style="rounded=1;whiteSpace=wrap;html=1;fontFamily=Manrope;fontSource=https%3A%2F%2Ffonts.googleapis.com%2Fcss%3Ffamily%3DManrope;fontSize=14;fontColor=#FFFFFF;spacing=0;arcSize=15;fillColor=#002060;strokeColor=none;align=center;verticalAlign=middle;labelPosition=center;verticalLabelPosition=middle;horizontal=1;" vertex="1" parent="tuzMwipLeWRuzpTrGQp2-1">
          <mxGeometry x="489.5" y="179" width="81" height="22" as="geometry" />
        </mxCell>
        <mxCell id="HZyWptrRybt8TGg7zKzo-17" value="&lt;div style=&quot;font-size: 10px;&quot;&gt;&lt;font style=&quot;font-size: 10px;&quot;&gt;VPRN&lt;/font&gt;&lt;/div&gt;" style="rounded=1;whiteSpace=wrap;html=1;fontFamily=Manrope;fontSource=https%3A%2F%2Ffonts.googleapis.com%2Fcss%3Ffamily%3DManrope;fontSize=10;fontColor=#FFFFFF;spacing=0;arcSize=50;fillColor=#664957;strokeColor=none;align=center;verticalAlign=middle;labelPosition=center;verticalLabelPosition=middle;horizontal=1;" vertex="1" parent="tuzMwipLeWRuzpTrGQp2-1">
          <mxGeometry x="339" y="201" width="50" height="18" as="geometry" />
        </mxCell>
        <mxCell id="Fd1i0DzpXATbjXJw5b34-1" value="" style="curved=1;endArrow=classic;html=1;rounded=0;strokeColor=#FFFFFF;dashed=1;startArrow=classic;startFill=1;exitX=0;exitY=0;exitDx=0;exitDy=0;strokeWidth=2;shadow=1;entryX=0.75;entryY=1;entryDx=0;entryDy=0;" parent="tuzMwipLeWRuzpTrGQp2-1" source="tuzMwipLeWRuzpTrGQp2-113" edge="1" target="tuzMwipLeWRuzpTrGQp2-66">
          <mxGeometry width="50" height="50" relative="1" as="geometry">
            <mxPoint x="269" y="499" as="sourcePoint" />
            <mxPoint x="375" y="256" as="targetPoint" />
            <Array as="points">
              <mxPoint x="364" y="460" />
              <mxPoint x="337" y="389" />
              <mxPoint x="472" y="346" />
            </Array>
          </mxGeometry>
        </mxCell>
        <mxCell id="Fd1i0DzpXATbjXJw5b34-0" value="" style="curved=1;endArrow=classic;html=1;rounded=0;entryX=0.75;entryY=1;entryDx=0;entryDy=0;strokeColor=#FFFFFF;dashed=1;startArrow=classic;startFill=1;strokeWidth=2;shadow=1;" parent="tuzMwipLeWRuzpTrGQp2-1" target="tuzMwipLeWRuzpTrGQp2-66" edge="1">
          <mxGeometry width="50" height="50" relative="1" as="geometry">
            <mxPoint x="268" y="498" as="sourcePoint" />
            <mxPoint x="448" y="335" as="targetPoint" />
            <Array as="points">
              <mxPoint x="192" y="459" />
              <mxPoint x="287" y="386" />
              <mxPoint x="465" y="347" />
            </Array>
          </mxGeometry>
        </mxCell>
        <mxCell id="HZyWptrRybt8TGg7zKzo-18" value="&lt;div style=&quot;font-size: 10px;&quot;&gt;&lt;font style=&quot;font-size: 10px;&quot;&gt;R-VPLS&lt;/font&gt;&lt;/div&gt;" style="rounded=1;whiteSpace=wrap;html=1;fontFamily=Manrope;fontSource=https%3A%2F%2Ffonts.googleapis.com%2Fcss%3Ffamily%3DManrope;fontSize=10;fontColor=#FFFFFF;spacing=0;arcSize=50;fillColor=#576649;strokeColor=none;align=center;verticalAlign=middle;labelPosition=center;verticalLabelPosition=middle;horizontal=1;" vertex="1" parent="tuzMwipLeWRuzpTrGQp2-1">
          <mxGeometry x="438.5" y="219" width="50" height="18" as="geometry" />
        </mxCell>
        <mxCell id="HZyWptrRybt8TGg7zKzo-19" value="&lt;div style=&quot;font-size: 10px;&quot;&gt;&lt;font style=&quot;font-size: 10px;&quot;&gt;VPRN&lt;/font&gt;&lt;/div&gt;" style="rounded=1;whiteSpace=wrap;html=1;fontFamily=Manrope;fontSource=https%3A%2F%2Ffonts.googleapis.com%2Fcss%3Ffamily%3DManrope;fontSize=10;fontColor=#FFFFFF;spacing=0;arcSize=50;fillColor=#664957;strokeColor=none;align=center;verticalAlign=middle;labelPosition=center;verticalLabelPosition=middle;horizontal=1;" vertex="1" parent="tuzMwipLeWRuzpTrGQp2-1">
          <mxGeometry x="439.5" y="201" width="50" height="18" as="geometry" />
        </mxCell>
      </root>
    </mxGraphModel>
  </diagram>
</mxfile>
